<svg width="25" height="25" viewBox="0 0 25 25" fill="none" xmlns="http://www.w3.org/2000/svg">
<mask id="mask0_3009_5861" style="mask-type:luminance" maskUnits="userSpaceOnUse" x="0" y="0" width="25" height="25">
<path d="M24.9785 0.0400391H0.978516V24.04H24.9785V0.0400391Z" fill="white"/>
</mask>
<g mask="url(#mask0_3009_5861)">
<path d="M12.9785 24.04C19.606 24.04 24.9785 18.6675 24.9785 12.04C24.9785 5.41262 19.606 0.0400391 12.9785 0.0400391C6.3511 0.0400391 0.978516 5.41262 0.978516 12.04C0.978516 18.6675 6.3511 24.04 12.9785 24.04Z" fill="white"/>
<path fill-rule="evenodd" clip-rule="evenodd" d="M10.483 23.7802L10.4798 11.6398C7.47843 11.8914 7.5703 9.06834 7.5703 9.06834C8.30517 8.49421 8.92547 7.81497 9.43117 7.03061C10.1441 5.92482 12.0723 5.55621 12.0723 5.55621L11.613 4.14417C12.5935 3.92434 13.2644 5.55621 13.2644 5.55621V3.67384C13.8049 3.85371 14.1521 4.05876 14.306 4.28899C14.3621 4.37291 14.4121 4.46191 14.4569 4.55362C14.7934 5.24401 14.826 6.08889 14.826 6.08889C15.6671 6.63849 16.596 7.52419 16.82 9.35054C16.82 10.3215 17.0792 19.9037 17.1716 23.287C21.7312 21.5865 24.9785 17.1925 24.9785 12.04C24.9785 5.41262 19.606 0.0400391 12.9785 0.0400391C6.3511 0.0400391 0.978516 5.41262 0.978516 12.04C0.978516 17.8117 5.05327 22.6317 10.483 23.7802Z" fill="#FCD700"/>
<path d="M13.2738 5.61749C13.6052 5.61749 13.8738 5.18239 13.8738 4.64566C13.8738 4.10894 13.6052 3.67383 13.2738 3.67383C12.9425 3.67383 12.6738 4.10894 12.6738 4.64566C12.6738 5.18239 12.9425 5.61749 13.2738 5.61749Z" fill="#D8D8D8"/>
<path fill-rule="evenodd" clip-rule="evenodd" d="M7.60456 9.18263C7.65123 9.18263 7.73871 9.20848 7.73871 9.08237C7.73871 8.95625 7.74609 8.96488 7.70098 8.96313C7.60068 9.03668 7.56969 9.02698 7.56969 9.08237C7.56969 9.13775 7.55788 9.18263 7.60456 9.18263Z" fill="#D8D8D8"/>
<path fill-rule="evenodd" clip-rule="evenodd" d="M11.6037 4.13541C11.4934 4.17341 11.5149 4.52616 11.6516 4.92333C11.7884 5.3205 11.9887 5.61166 12.099 5.57368C12.2093 5.53568 12.1879 5.18293 12.0511 4.78576C11.9144 4.38859 11.7141 4.09743 11.6037 4.13541Z" fill="#D8D8D8"/>
<path d="M10.5273 8.5194H11.255C11.6057 8.5194 11.7062 8.06812 11.7062 8.06812H10.9288C10.5772 8.06812 10.5273 8.5194 10.5273 8.5194Z" fill="#D8D8D8"/>
</g>
</svg>
