<svg width="26" height="25" viewBox="0 0 26 25" fill="none" xmlns="http://www.w3.org/2000/svg">
<mask id="mask0_3009_5077" style="mask-type:luminance" maskUnits="userSpaceOnUse" x="0" y="0" width="26" height="25">
<path d="M25.3118 0.0400391H0.978516V24.04H25.3118V0.0400391Z" fill="white"/>
</mask>
<g mask="url(#mask0_3009_5077)">
<path d="M22.9497 14.9386C22.4281 14.9386 22.0222 14.5328 21.9642 14.0111C21.6164 9.02554 18.8917 2.01106 13.8483 2.01106C9.67441 2.01106 6.54398 4.90961 4.51499 10.6487C4.34108 11.1705 3.76136 11.4603 3.23963 11.2284C2.71789 11.0545 2.42803 10.4748 2.65991 10.0111C4.97876 3.40236 8.74688 0.0400391 13.8483 0.0400391C20.5149 0.0400391 23.5874 8.50381 23.9352 13.8951C23.9932 14.4169 23.5874 14.9386 23.0077 14.9386H22.9497Z" fill="#1D2D35"/>
<path opacity="0.4" d="M25.2683 16.8516L7.87707 24.04L0.978516 7.34431L4.10895 6.06894L18.4278 0.213867L25.2683 16.8516Z" fill="#FFE000"/>
<path d="M24.4571 18.7647L6.0223 22.5907L2.37012 4.90959L5.44258 4.2719L20.805 1.0835L24.4571 18.7647Z" fill="#FFE000"/>
<path d="M13.6164 18.5907C10.2541 18.5907 7.00773 17.1415 4.74686 14.5908C4.45699 14.3589 4.39903 13.9531 4.51498 13.6053C5.15266 11.9241 6.83381 8.04004 8.97874 7.98207C10.0802 7.98207 10.8918 8.85164 11.5295 9.54729C11.7034 9.77917 11.9932 10.069 12.2251 10.2429C12.7469 9.72121 13.7324 8.09801 14.486 6.41686C14.7179 5.89511 15.2976 5.72121 15.8193 5.95309C16.3411 6.18497 16.515 6.76467 16.2831 7.28642C13.9642 12.3299 12.7469 12.3299 12.2831 12.3299C11.3555 12.3299 10.7179 11.6342 10.0802 10.9386C9.79033 10.6487 9.21063 10.0111 8.97874 10.0111C8.45699 10.069 7.35554 11.8661 6.60193 13.7792C8.51498 15.6922 11.1237 16.7357 13.7903 16.6777C16.1092 16.6777 20.2251 16.2719 21.9062 13.7792C21.4426 8.79366 18.7179 2.06902 13.7903 2.06902C13.2686 2.06902 12.8048 1.60526 12.8048 1.08352C12.8048 0.561777 13.2686 0.0400391 13.8483 0.0400391C20.5149 0.0400391 23.5874 8.50381 23.9352 13.8951C23.9352 14.069 23.8772 14.3009 23.8192 14.4748C22.2541 17.1415 18.7179 18.6487 13.8483 18.6487C13.7903 18.5907 13.6744 18.5907 13.6164 18.5907Z" fill="#1D2D35"/>
</g>
</svg>
