<svg width="413" height="488" viewBox="0 0 413 488" fill="none" xmlns="http://www.w3.org/2000/svg">
<rect x="15.5" y="0.799805" width="384" height="477" rx="15" fill="#FAFAF9"/>
<circle cx="72.4343" cy="56.734" r="17.9342" fill="url(#paint0_linear_5419_11623)"/>
<path d="M109.92 51.0158C108.96 51.0158 108.072 50.8418 107.256 50.4938C106.452 50.1458 105.744 49.6598 105.132 49.0358C104.532 48.4118 104.064 47.6798 103.728 46.8398C103.392 45.9998 103.224 45.0818 103.224 44.0858C103.224 43.0898 103.386 42.1718 103.71 41.3318C104.046 40.4798 104.514 39.7478 105.114 39.1358C105.726 38.5118 106.44 38.0318 107.256 37.6958C108.072 37.3478 108.96 37.1738 109.92 37.1738C110.88 37.1738 111.738 37.3358 112.494 37.6598C113.262 37.9838 113.91 38.4158 114.438 38.9558C114.966 39.4838 115.344 40.0658 115.572 40.7018L113.376 41.7278C113.124 41.0558 112.698 40.5038 112.098 40.0718C111.498 39.6278 110.772 39.4058 109.92 39.4058C109.08 39.4058 108.336 39.6038 107.688 39.9998C107.052 40.3958 106.554 40.9418 106.194 41.6378C105.846 42.3338 105.672 43.1498 105.672 44.0858C105.672 45.0218 105.846 45.8438 106.194 46.5518C106.554 47.2478 107.052 47.7938 107.688 48.1898C108.336 48.5858 109.08 48.7838 109.92 48.7838C110.772 48.7838 111.498 48.5678 112.098 48.1358C112.698 47.6918 113.124 47.1338 113.376 46.4618L115.572 47.4878C115.344 48.1238 114.966 48.7118 114.438 49.2518C113.91 49.7798 113.262 50.2058 112.494 50.5298C111.738 50.8538 110.88 51.0158 109.92 51.0158ZM117.362 50.7998V37.1738H119.72V42.9338L119.396 42.5918C119.624 42.0038 119.996 41.5598 120.512 41.2598C121.04 40.9478 121.652 40.7918 122.348 40.7918C123.068 40.7918 123.704 40.9478 124.256 41.2598C124.82 41.5718 125.258 42.0098 125.57 42.5738C125.882 43.1258 126.038 43.7678 126.038 44.4998V50.7998H123.68V45.0578C123.68 44.6258 123.596 44.2538 123.428 43.9418C123.26 43.6298 123.026 43.3898 122.726 43.2218C122.438 43.0418 122.096 42.9518 121.7 42.9518C121.316 42.9518 120.974 43.0418 120.674 43.2218C120.374 43.3898 120.14 43.6298 119.972 43.9418C119.804 44.2538 119.72 44.6258 119.72 45.0578V50.7998H117.362ZM128.032 50.7998V41.0078H130.246V43.1858L130.066 42.8618C130.294 42.1298 130.648 41.6198 131.128 41.3318C131.62 41.0438 132.208 40.8998 132.892 40.8998H133.468V42.9878H132.622C131.95 42.9878 131.41 43.1978 131.002 43.6178C130.594 44.0258 130.39 44.6018 130.39 45.3458V50.7998H128.032ZM134.764 50.7998V41.0078H137.122V50.7998H134.764ZM134.764 39.9098V37.3898H137.122V39.9098H134.764ZM143.025 51.0158C141.981 51.0158 141.069 50.7698 140.289 50.2778C139.521 49.7738 138.993 49.0958 138.705 48.2438L140.469 47.3978C140.721 47.9498 141.069 48.3818 141.513 48.6938C141.969 49.0058 142.473 49.1618 143.025 49.1618C143.457 49.1618 143.799 49.0658 144.051 48.8738C144.303 48.6818 144.429 48.4298 144.429 48.1178C144.429 47.9258 144.375 47.7698 144.267 47.6498C144.171 47.5178 144.033 47.4098 143.853 47.3258C143.685 47.2298 143.499 47.1518 143.295 47.0918L141.693 46.6418C140.865 46.4018 140.235 46.0358 139.803 45.5438C139.383 45.0518 139.173 44.4698 139.173 43.7978C139.173 43.1978 139.323 42.6758 139.623 42.2318C139.935 41.7758 140.361 41.4218 140.901 41.1698C141.453 40.9178 142.083 40.7918 142.791 40.7918C143.715 40.7918 144.531 41.0138 145.239 41.4578C145.947 41.9018 146.451 42.5258 146.751 43.3298L144.951 44.1758C144.783 43.7318 144.501 43.3778 144.105 43.1138C143.709 42.8498 143.265 42.7178 142.773 42.7178C142.377 42.7178 142.065 42.8078 141.837 42.9878C141.609 43.1678 141.495 43.4018 141.495 43.6898C141.495 43.8698 141.543 44.0258 141.639 44.1578C141.735 44.2898 141.867 44.3978 142.035 44.4818C142.215 44.5658 142.419 44.6438 142.647 44.7158L144.213 45.1838C145.017 45.4238 145.635 45.7838 146.067 46.2638C146.511 46.7438 146.733 47.3318 146.733 48.0278C146.733 48.6158 146.577 49.1378 146.265 49.5938C145.953 50.0378 145.521 50.3858 144.969 50.6378C144.417 50.8898 143.769 51.0158 143.025 51.0158ZM151.943 50.7998V37.3898H157.595C158.483 37.3898 159.239 37.5458 159.863 37.8578C160.499 38.1578 160.985 38.5898 161.321 39.1538C161.669 39.7058 161.843 40.3778 161.843 41.1698C161.843 41.7818 161.675 42.3578 161.339 42.8978C161.015 43.4258 160.493 43.8638 159.773 44.2118V43.0778C160.433 43.3298 160.955 43.6418 161.339 44.0138C161.723 44.3858 161.993 44.7998 162.149 45.2558C162.305 45.7118 162.383 46.1918 162.383 46.6958C162.383 47.9798 161.957 48.9878 161.105 49.7198C160.265 50.4398 159.095 50.7998 157.595 50.7998H151.943ZM154.391 48.6398H157.847C158.483 48.6398 158.987 48.4658 159.359 48.1178C159.743 47.7578 159.935 47.2838 159.935 46.6958C159.935 46.1078 159.743 45.6338 159.359 45.2738C158.987 44.9138 158.483 44.7338 157.847 44.7338H154.391V48.6398ZM154.391 42.5918H157.721C158.225 42.5918 158.627 42.4478 158.927 42.1598C159.227 41.8598 159.377 41.4758 159.377 41.0078C159.377 40.5398 159.227 40.1678 158.927 39.8918C158.627 39.6158 158.225 39.4778 157.721 39.4778H154.391V42.5918ZM164.19 50.7998V41.0078H166.404V43.1858L166.224 42.8618C166.452 42.1298 166.806 41.6198 167.286 41.3318C167.778 41.0438 168.366 40.8998 169.05 40.8998H169.626V42.9878H168.78C168.108 42.9878 167.568 43.1978 167.16 43.6178C166.752 44.0258 166.548 44.6018 166.548 45.3458V50.7998H164.19ZM175.71 51.0158C174.75 51.0158 173.874 50.7938 173.082 50.3498C172.302 49.9058 171.678 49.2998 171.21 48.5318C170.754 47.7638 170.526 46.8878 170.526 45.9038C170.526 44.9198 170.754 44.0438 171.21 43.2758C171.678 42.5078 172.302 41.9018 173.082 41.4578C173.862 41.0138 174.738 40.7918 175.71 40.7918C176.67 40.7918 177.54 41.0138 178.32 41.4578C179.1 41.9018 179.718 42.5078 180.174 43.2758C180.642 44.0318 180.876 44.9078 180.876 45.9038C180.876 46.8878 180.642 47.7638 180.174 48.5318C179.706 49.2998 179.082 49.9058 178.302 50.3498C177.522 50.7938 176.658 51.0158 175.71 51.0158ZM175.71 48.8558C176.238 48.8558 176.7 48.7298 177.096 48.4778C177.504 48.2258 177.822 47.8778 178.05 47.4338C178.29 46.9778 178.41 46.4678 178.41 45.9038C178.41 45.3278 178.29 44.8238 178.05 44.3918C177.822 43.9478 177.504 43.5998 177.096 43.3478C176.7 43.0838 176.238 42.9518 175.71 42.9518C175.17 42.9518 174.696 43.0838 174.288 43.3478C173.88 43.5998 173.556 43.9478 173.316 44.3918C173.088 44.8238 172.974 45.3278 172.974 45.9038C172.974 46.4678 173.088 46.9778 173.316 47.4338C173.556 47.8778 173.88 48.2258 174.288 48.4778C174.696 48.7298 175.17 48.8558 175.71 48.8558ZM184.955 50.7998L181.589 41.0078H184.073L186.539 48.4418L185.675 48.4238L188.303 41.0078H190.391L193.001 48.4238L192.137 48.4418L194.603 41.0078H197.087L193.721 50.7998H191.615L188.951 43.0418H189.743L187.043 50.7998H184.955ZM198.38 50.7998V41.0078H200.594V42.9338L200.414 42.5918C200.642 42.0038 201.014 41.5598 201.53 41.2598C202.058 40.9478 202.67 40.7918 203.366 40.7918C204.086 40.7918 204.722 40.9478 205.274 41.2598C205.838 41.5718 206.276 42.0098 206.588 42.5738C206.9 43.1258 207.056 43.7678 207.056 44.4998V50.7998H204.698V45.0578C204.698 44.6258 204.614 44.2538 204.446 43.9418C204.278 43.6298 204.044 43.3898 203.744 43.2218C203.456 43.0418 203.114 42.9518 202.718 42.9518C202.334 42.9518 201.992 43.0418 201.692 43.2218C201.392 43.3898 201.158 43.6298 200.99 43.9418C200.822 44.2538 200.738 44.6258 200.738 45.0578V50.7998H198.38Z" fill="#18181B"/>
<path d="M68.5605 61.7998H70.5082V57.8624H72.4927L74.6031 61.7998H76.7766L74.4509 57.5369C75.7161 57.0277 76.3828 55.9462 76.3828 54.4867C76.3828 52.434 75.0599 51.0481 72.5924 51.0481H68.5605V61.7998ZM70.5082 56.2454V52.6755H72.2932C73.7474 52.6755 74.3984 53.3423 74.3984 54.4867C74.3984 55.6312 73.7474 56.2454 72.3037 56.2454H70.5082Z" fill="white"/>
<path d="M104.915 72.2695L102.212 64.3931H103.717L105.865 70.9836L105.339 70.969L107.443 64.3931H108.729L110.834 70.969L110.308 70.9836L112.47 64.3931H113.961L111.257 72.2695H109.957L107.882 65.6936H108.291L106.216 72.2695H104.915ZM116.988 72.2695L114.285 64.3931H115.79L117.938 70.9836L117.412 70.969L119.516 64.3931H120.802L122.907 70.969L122.38 70.9836L124.543 64.3931H126.034L123.33 72.2695H122.03L119.955 65.6936H120.364L118.289 72.2695H116.988ZM129.061 72.2695L126.358 64.3931H127.863L130.011 70.9836L129.485 70.969L131.589 64.3931H132.875L134.979 70.969L134.453 70.9836L136.616 64.3931H138.107L135.403 72.2695H134.103L132.028 65.6936H132.437L130.362 72.2695H129.061ZM139.292 72.2695V70.516H140.71V72.2695H139.292ZM143.375 72.2695V64.3931H144.705V65.8398L144.559 65.6352C144.744 65.1871 145.026 64.8558 145.406 64.6415C145.786 64.4174 146.249 64.3054 146.794 64.3054H147.277V65.5914H146.59C146.034 65.5914 145.586 65.7667 145.245 66.1174C144.904 66.4584 144.734 66.9455 144.734 67.5787V72.2695H143.375ZM151.275 72.4449C150.71 72.4449 150.198 72.3134 149.74 72.0503C149.292 71.7873 148.942 71.422 148.688 70.9544C148.445 70.477 148.323 69.9314 148.323 69.3177V64.3931H149.682V69.1716C149.682 69.5612 149.76 69.9022 149.916 70.1945C150.081 70.4867 150.306 70.7157 150.588 70.8813C150.88 71.0469 151.212 71.1297 151.582 71.1297C151.952 71.1297 152.278 71.0469 152.561 70.8813C152.853 70.7157 153.077 70.477 153.233 70.1652C153.399 69.8535 153.481 69.4833 153.481 69.0547V64.3931H154.855V72.2695H153.525V70.7352L153.744 70.8667C153.559 71.3635 153.243 71.7532 152.795 72.0357C152.356 72.3085 151.85 72.4449 151.275 72.4449ZM156.96 72.2695V64.3931H158.29V65.9275L158.071 65.7959C158.266 65.2991 158.578 64.9143 159.006 64.6415C159.445 64.359 159.956 64.2177 160.541 64.2177C161.106 64.2177 161.607 64.3444 162.046 64.5977C162.494 64.851 162.845 65.2017 163.098 65.6498C163.361 66.0979 163.493 66.6045 163.493 67.1696V72.2695H162.119V67.608C162.119 67.1696 162.041 66.7994 161.885 66.4974C161.729 66.1954 161.505 65.9616 161.213 65.7959C160.93 65.6206 160.604 65.5329 160.234 65.5329C159.864 65.5329 159.532 65.6206 159.24 65.7959C158.958 65.9616 158.734 66.2002 158.568 66.512C158.402 66.814 158.32 67.1793 158.32 67.608V72.2695H156.96ZM168.258 72.4449C167.468 72.4449 166.782 72.25 166.197 71.8604C165.613 71.4707 165.199 70.9446 164.955 70.2822L166.036 69.7561C166.26 70.2237 166.567 70.5939 166.957 70.8667C167.347 71.1395 167.78 71.2758 168.258 71.2758C168.686 71.2758 169.042 71.1736 169.324 70.969C169.607 70.7644 169.748 70.4965 169.748 70.1652C169.748 69.9314 169.68 69.7463 169.543 69.61C169.417 69.4638 169.261 69.3518 169.076 69.2739C168.891 69.1862 168.72 69.1228 168.564 69.0839L167.381 68.7478C166.67 68.5432 166.148 68.2509 165.817 67.871C165.496 67.4911 165.335 67.0478 165.335 66.5412C165.335 66.0736 165.452 65.6693 165.686 65.3283C165.929 64.9776 166.256 64.7048 166.665 64.51C167.084 64.3151 167.551 64.2177 168.068 64.2177C168.759 64.2177 169.378 64.3931 169.923 64.7438C170.479 65.0945 170.873 65.5865 171.107 66.2197L169.996 66.7312C169.821 66.322 169.558 66.0005 169.207 65.7667C168.857 65.5232 168.462 65.4014 168.024 65.4014C167.624 65.4014 167.308 65.5037 167.074 65.7083C166.84 65.9031 166.723 66.1515 166.723 66.4535C166.723 66.6776 166.782 66.8627 166.899 67.0088C167.015 67.1452 167.157 67.2524 167.322 67.3303C167.488 67.3985 167.649 67.457 167.805 67.5057L169.09 67.8856C169.733 68.0707 170.23 68.3581 170.581 68.7478C170.941 69.1375 171.122 69.6051 171.122 70.1506C171.122 70.589 171 70.9836 170.756 71.3343C170.513 71.685 170.177 71.9578 169.748 72.1526C169.319 72.3475 168.823 72.4449 168.258 72.4449ZM172.901 72.2695V61.2074H174.26V65.9275L174.011 65.7959C174.206 65.2991 174.518 64.9143 174.947 64.6415C175.385 64.359 175.896 64.2177 176.481 64.2177C177.046 64.2177 177.548 64.3444 177.986 64.5977C178.434 64.851 178.785 65.2017 179.038 65.6498C179.301 66.0979 179.433 66.6045 179.433 67.1696V72.2695H178.059V67.608C178.059 67.1696 177.976 66.7994 177.811 66.4974C177.655 66.1954 177.436 65.9616 177.153 65.7959C176.871 65.6206 176.544 65.5329 176.174 65.5329C175.814 65.5329 175.487 65.6206 175.195 65.7959C174.903 65.9616 174.674 66.2002 174.508 66.512C174.343 66.814 174.26 67.1793 174.26 67.608V72.2695H172.901ZM181.377 72.2695V64.3931H182.736V72.2695H181.377ZM181.377 63.1364V61.3828H182.736V63.1364H181.377ZM185.678 72.2695V65.6936H184.173V64.3931H185.678V63.8378C185.678 63.2727 185.8 62.7954 186.043 62.4057C186.297 62.016 186.628 61.7189 187.037 61.5143C187.456 61.3097 187.919 61.2074 188.425 61.2074C188.533 61.2074 188.649 61.2172 188.776 61.2367C188.913 61.2464 189.025 61.261 189.112 61.2805V62.4934C189.034 62.4739 188.942 62.4642 188.835 62.4642C188.727 62.4544 188.645 62.4495 188.586 62.4495C188.138 62.4495 187.768 62.5567 187.476 62.771C187.193 62.9854 187.052 63.3409 187.052 63.8378V64.3931H188.922V65.6936H187.052V72.2695H185.678ZM194.068 72.3572C193.298 72.3572 192.704 72.138 192.285 71.6996C191.876 71.2612 191.671 70.6426 191.671 69.8438V65.6936H190.239V64.3931H190.531C190.882 64.3931 191.16 64.2859 191.364 64.0716C191.569 63.8573 191.671 63.5748 191.671 63.224V62.5811H193.03V64.3931H194.798V65.6936H193.03V69.7999C193.03 70.063 193.069 70.2919 193.147 70.4867C193.235 70.6816 193.376 70.8374 193.571 70.9544C193.766 71.0615 194.024 71.1151 194.345 71.1151C194.413 71.1151 194.496 71.1102 194.594 71.1005C194.701 71.0907 194.798 71.081 194.886 71.0713V72.2695C194.759 72.2988 194.618 72.3182 194.462 72.328C194.306 72.3475 194.175 72.3572 194.068 72.3572ZM197.217 72.2695V70.516H198.634V72.2695H197.217ZM204.952 72.4449C204.183 72.4449 203.496 72.2647 202.892 71.9042C202.298 71.5437 201.83 71.0518 201.489 70.4283C201.148 69.8048 200.978 69.1034 200.978 68.324C200.978 67.5349 201.148 66.8335 201.489 66.2197C201.83 65.606 202.298 65.1189 202.892 64.7584C203.496 64.398 204.183 64.2177 204.952 64.2177C205.469 64.2177 205.951 64.3103 206.399 64.4954C206.847 64.6805 207.242 64.9289 207.583 65.2406C207.924 65.5524 208.172 65.9177 208.328 66.3366L207.115 66.9211C206.93 66.512 206.648 66.1808 206.268 65.9275C205.888 65.6644 205.449 65.5329 204.952 65.5329C204.475 65.5329 204.042 65.6547 203.652 65.8982C203.272 66.1418 202.97 66.473 202.746 66.8919C202.522 67.3108 202.41 67.7931 202.41 68.3386C202.41 68.8647 202.522 69.342 202.746 69.7707C202.97 70.1896 203.272 70.5208 203.652 70.7644C204.042 71.0079 204.475 71.1297 204.952 71.1297C205.449 71.1297 205.888 71.0031 206.268 70.7498C206.648 70.4867 206.93 70.1409 207.115 69.7122L208.328 70.326C208.172 70.7352 207.924 71.1005 207.583 71.422C207.242 71.7337 206.847 71.9821 206.399 72.1672C205.951 72.3523 205.469 72.4449 204.952 72.4449ZM213.845 72.4449C213.085 72.4449 212.398 72.2695 211.785 71.9188C211.171 71.5584 210.684 71.0664 210.323 70.4429C209.963 69.8194 209.783 69.1131 209.783 68.324C209.783 67.5349 209.958 66.8335 210.309 66.2197C210.669 65.606 211.156 65.1189 211.77 64.7584C212.384 64.398 213.075 64.2177 213.845 64.2177C214.605 64.2177 215.292 64.398 215.906 64.7584C216.519 65.1091 217.001 65.5914 217.352 66.2051C217.713 66.8189 217.893 67.5252 217.893 68.324C217.893 69.1228 217.708 69.834 217.338 70.4575C216.967 71.0713 216.475 71.5584 215.862 71.9188C215.258 72.2695 214.585 72.4449 213.845 72.4449ZM213.845 71.1297C214.332 71.1297 214.771 71.0079 215.16 70.7644C215.56 70.5208 215.871 70.1847 216.095 69.7561C216.329 69.3274 216.446 68.8501 216.446 68.324C216.446 67.7882 216.329 67.3157 216.095 66.9065C215.871 66.4876 215.56 66.1564 215.16 65.9128C214.771 65.6596 214.332 65.5329 213.845 65.5329C213.348 65.5329 212.9 65.6596 212.501 65.9128C212.111 66.1564 211.799 66.4876 211.565 66.9065C211.332 67.3157 211.215 67.7882 211.215 68.324C211.215 68.8501 211.332 69.3274 211.565 69.7561C211.799 70.1847 212.111 70.5208 212.501 70.7644C212.9 71.0079 213.348 71.1297 213.845 71.1297ZM219.665 72.2695V64.3931H220.995V66.0005L220.805 65.7521C221 65.2553 221.312 64.8753 221.74 64.6123C222.169 64.3492 222.651 64.2177 223.187 64.2177C223.801 64.2177 224.351 64.3882 224.838 64.7292C225.335 65.0702 225.676 65.5183 225.861 66.0736L225.481 66.0882C225.686 65.4745 226.032 65.0117 226.519 64.7C227.006 64.3785 227.547 64.2177 228.141 64.2177C228.687 64.2177 229.179 64.3444 229.617 64.5977C230.065 64.851 230.421 65.2017 230.684 65.6498C230.947 66.0979 231.078 66.6045 231.078 67.1696V72.2695H229.705V67.608C229.705 67.1696 229.627 66.7994 229.471 66.4974C229.315 66.1954 229.101 65.9616 228.828 65.7959C228.565 65.6206 228.253 65.5329 227.893 65.5329C227.542 65.5329 227.225 65.6206 226.943 65.7959C226.67 65.9616 226.451 66.2002 226.285 66.512C226.129 66.814 226.051 67.1793 226.051 67.608V72.2695H224.678V67.608C224.678 67.1696 224.6 66.7994 224.444 66.4974C224.288 66.1954 224.074 65.9616 223.801 65.7959C223.538 65.6206 223.226 65.5329 222.866 65.5329C222.515 65.5329 222.198 65.6206 221.916 65.7959C221.643 65.9616 221.424 66.2002 221.258 66.512C221.102 66.814 221.024 67.1793 221.024 67.608V72.2695H219.665Z" fill="#71717A"/>
<g filter="url(#filter0_f_5419_11623)">
<rect x="70.5" y="264.8" width="272" height="153" fill="url(#paint1_linear_5419_11623)"/>
</g>
<g filter="url(#filter1_d_5419_11623)">
<rect x="50.5" y="201.8" width="314" height="238" rx="10" fill="white"/>
</g>
<path d="M74.894 229.956C74.2787 229.956 73.7067 229.843 73.178 229.618C72.658 229.392 72.2073 229.08 71.826 228.682C71.4533 228.274 71.1803 227.802 71.007 227.265L72.476 226.628C72.71 227.182 73.048 227.62 73.49 227.941C73.932 228.253 74.4303 228.409 74.985 228.409C75.297 228.409 75.5657 228.361 75.791 228.266C76.025 228.162 76.2027 228.023 76.324 227.85C76.454 227.676 76.519 227.468 76.519 227.226C76.519 226.94 76.4323 226.706 76.259 226.524C76.0943 226.333 75.843 226.186 75.505 226.082L73.646 225.484C72.892 225.25 72.3243 224.899 71.943 224.431C71.5617 223.963 71.371 223.412 71.371 222.78C71.371 222.225 71.5053 221.735 71.774 221.311C72.0513 220.886 72.4327 220.557 72.918 220.323C73.412 220.08 73.9753 219.959 74.608 219.959C75.1887 219.959 75.7217 220.063 76.207 220.271C76.6923 220.47 77.1083 220.752 77.455 221.116C77.8103 221.471 78.0747 221.891 78.248 222.377L76.792 223.027C76.6013 222.541 76.3153 222.169 75.934 221.909C75.5527 221.64 75.1107 221.506 74.608 221.506C74.3133 221.506 74.0533 221.558 73.828 221.662C73.6027 221.757 73.425 221.896 73.295 222.078C73.1737 222.251 73.113 222.459 73.113 222.702C73.113 222.97 73.1997 223.209 73.373 223.417C73.5463 223.616 73.8107 223.772 74.166 223.885L75.947 224.444C76.7183 224.695 77.2947 225.042 77.676 225.484C78.066 225.926 78.261 226.472 78.261 227.122C78.261 227.676 78.118 228.166 77.832 228.591C77.546 229.015 77.1517 229.349 76.649 229.592C76.1463 229.834 75.5613 229.956 74.894 229.956ZM79.71 229.8V219.959H81.413V224.119L81.179 223.872C81.3437 223.447 81.6123 223.126 81.985 222.91C82.3663 222.684 82.8083 222.572 83.311 222.572C83.831 222.572 84.2903 222.684 84.689 222.91C85.0963 223.135 85.4127 223.451 85.638 223.859C85.8633 224.257 85.976 224.721 85.976 225.25V229.8H84.273V225.653C84.273 225.341 84.2123 225.072 84.091 224.847C83.9697 224.621 83.8007 224.448 83.584 224.327C83.376 224.197 83.129 224.132 82.843 224.132C82.5657 224.132 82.3187 224.197 82.102 224.327C81.8853 224.448 81.7163 224.621 81.595 224.847C81.4737 225.072 81.413 225.341 81.413 225.653V229.8H79.71ZM87.416 229.8V222.728H89.119V229.8H87.416ZM87.416 221.935V220.115H89.119V221.935H87.416ZM91.5104 229.8V224.249H90.2624V222.728H91.5104V222.494C91.5104 221.956 91.6188 221.501 91.8354 221.129C92.0608 220.747 92.3728 220.457 92.7714 220.258C93.1701 220.058 93.6424 219.959 94.1884 219.959C94.2924 219.959 94.4051 219.967 94.5264 219.985C94.6564 219.993 94.7648 220.006 94.8514 220.024V221.493C94.7648 221.475 94.6824 221.467 94.6044 221.467C94.5351 221.458 94.4701 221.454 94.4094 221.454C94.0281 221.454 93.7334 221.54 93.5254 221.714C93.3174 221.878 93.2134 222.138 93.2134 222.494V222.728H94.7864V224.249H93.2134V229.8H91.5104ZM99.5141 229.878C98.7167 229.878 98.0971 229.661 97.6551 229.228C97.2217 228.786 97.0051 228.166 97.0051 227.369V224.249H95.7831V222.728H95.9131C96.2597 222.728 96.5284 222.637 96.7191 222.455C96.9097 222.273 97.0051 222.008 97.0051 221.662V221.116H98.7081V222.728H100.333V224.249H98.7081V227.278C98.7081 227.512 98.7471 227.711 98.8251 227.876C98.9117 228.04 99.0417 228.166 99.2151 228.253C99.3971 228.339 99.6267 228.383 99.9041 228.383C99.9647 228.383 100.034 228.378 100.112 228.37C100.199 228.361 100.281 228.352 100.359 228.344V229.8C100.238 229.817 100.099 229.834 99.9431 229.852C99.7871 229.869 99.6441 229.878 99.5141 229.878ZM104.114 229.8V220.115H107.715C108.373 220.115 108.954 220.236 109.457 220.479C109.968 220.713 110.367 221.059 110.653 221.519C110.939 221.969 111.082 222.52 111.082 223.17C111.082 223.837 110.921 224.405 110.601 224.873C110.289 225.341 109.864 225.687 109.327 225.913L111.55 229.8H109.548L107.169 225.549L108.313 226.225H105.882V229.8H104.114ZM105.882 224.665H107.741C108.061 224.665 108.339 224.604 108.573 224.483C108.807 224.353 108.989 224.175 109.119 223.95C109.249 223.724 109.314 223.464 109.314 223.17C109.314 222.866 109.249 222.606 109.119 222.39C108.989 222.164 108.807 221.991 108.573 221.87C108.339 221.74 108.061 221.675 107.741 221.675H105.882V224.665ZM115.526 229.956C114.798 229.956 114.161 229.791 113.615 229.462C113.069 229.132 112.644 228.686 112.341 228.123C112.038 227.559 111.886 226.935 111.886 226.251C111.886 225.54 112.038 224.912 112.341 224.366C112.653 223.811 113.073 223.373 113.602 223.053C114.139 222.732 114.737 222.572 115.396 222.572C115.951 222.572 116.436 222.663 116.852 222.845C117.277 223.027 117.636 223.278 117.931 223.599C118.226 223.919 118.451 224.288 118.607 224.704C118.763 225.111 118.841 225.553 118.841 226.03C118.841 226.151 118.832 226.277 118.815 226.407C118.806 226.537 118.785 226.649 118.75 226.745H113.29V225.445H117.788L116.982 226.056C117.06 225.657 117.038 225.302 116.917 224.99C116.804 224.678 116.614 224.431 116.345 224.249C116.085 224.067 115.769 223.976 115.396 223.976C115.041 223.976 114.724 224.067 114.447 224.249C114.17 224.422 113.957 224.682 113.81 225.029C113.671 225.367 113.619 225.778 113.654 226.264C113.619 226.697 113.676 227.083 113.823 227.421C113.979 227.75 114.204 228.006 114.499 228.188C114.802 228.37 115.149 228.461 115.539 228.461C115.929 228.461 116.258 228.378 116.527 228.214C116.804 228.049 117.021 227.828 117.177 227.551L118.555 228.227C118.416 228.565 118.2 228.864 117.905 229.124C117.61 229.384 117.259 229.587 116.852 229.735C116.453 229.882 116.011 229.956 115.526 229.956ZM120.132 232.4V222.728H121.731V224.132L121.575 223.781C121.818 223.399 122.147 223.105 122.563 222.897C122.979 222.68 123.46 222.572 124.006 222.572C124.673 222.572 125.276 222.736 125.813 223.066C126.35 223.395 126.775 223.837 127.087 224.392C127.408 224.946 127.568 225.57 127.568 226.264C127.568 226.948 127.412 227.572 127.1 228.136C126.788 228.699 126.363 229.145 125.826 229.475C125.289 229.795 124.678 229.956 123.993 229.956C123.482 229.956 123.009 229.856 122.576 229.657C122.151 229.449 121.813 229.154 121.562 228.773L121.835 228.435V232.4H120.132ZM123.798 228.396C124.188 228.396 124.535 228.305 124.838 228.123C125.141 227.941 125.375 227.689 125.54 227.369C125.713 227.048 125.8 226.68 125.8 226.264C125.8 225.848 125.713 225.484 125.54 225.172C125.375 224.851 125.141 224.6 124.838 224.418C124.535 224.227 124.188 224.132 123.798 224.132C123.425 224.132 123.087 224.223 122.784 224.405C122.489 224.587 122.255 224.842 122.082 225.172C121.917 225.492 121.835 225.856 121.835 226.264C121.835 226.68 121.917 227.048 122.082 227.369C122.255 227.689 122.489 227.941 122.784 228.123C123.087 228.305 123.425 228.396 123.798 228.396ZM132.324 229.956C131.631 229.956 130.998 229.795 130.426 229.475C129.863 229.154 129.412 228.716 129.074 228.162C128.745 227.607 128.58 226.974 128.58 226.264C128.58 225.553 128.745 224.92 129.074 224.366C129.412 223.811 129.863 223.373 130.426 223.053C130.99 222.732 131.622 222.572 132.324 222.572C133.018 222.572 133.646 222.732 134.209 223.053C134.773 223.373 135.219 223.811 135.548 224.366C135.886 224.912 136.055 225.544 136.055 226.264C136.055 226.974 135.886 227.607 135.548 228.162C135.21 228.716 134.76 229.154 134.196 229.475C133.633 229.795 133.009 229.956 132.324 229.956ZM132.324 228.396C132.706 228.396 133.039 228.305 133.325 228.123C133.62 227.941 133.85 227.689 134.014 227.369C134.188 227.039 134.274 226.671 134.274 226.264C134.274 225.848 134.188 225.484 134.014 225.172C133.85 224.851 133.62 224.6 133.325 224.418C133.039 224.227 132.706 224.132 132.324 224.132C131.934 224.132 131.592 224.227 131.297 224.418C131.003 224.6 130.769 224.851 130.595 225.172C130.431 225.484 130.348 225.848 130.348 226.264C130.348 226.671 130.431 227.039 130.595 227.369C130.769 227.689 131.003 227.941 131.297 228.123C131.592 228.305 131.934 228.396 132.324 228.396ZM137.347 229.8V222.728H138.946V224.301L138.816 224.067C138.98 223.538 139.236 223.17 139.583 222.962C139.938 222.754 140.363 222.65 140.857 222.65H141.273V224.158H140.662C140.176 224.158 139.786 224.309 139.492 224.613C139.197 224.907 139.05 225.323 139.05 225.861V229.8H137.347ZM145.623 229.878C144.826 229.878 144.206 229.661 143.764 229.228C143.331 228.786 143.114 228.166 143.114 227.369V224.249H141.892V222.728H142.022C142.369 222.728 142.638 222.637 142.828 222.455C143.019 222.273 143.114 222.008 143.114 221.662V221.116H144.817V222.728H146.442V224.249H144.817V227.278C144.817 227.512 144.856 227.711 144.934 227.876C145.021 228.04 145.151 228.166 145.324 228.253C145.506 228.339 145.736 228.383 146.013 228.383C146.074 228.383 146.143 228.378 146.221 228.37C146.308 228.361 146.39 228.352 146.468 228.344V229.8C146.347 229.817 146.208 229.834 146.052 229.852C145.896 229.869 145.753 229.878 145.623 229.878Z" fill="#18181B"/>
<path d="M253.741 229.8H255.509V223.092L258.512 227.2H258.72L261.71 223.222V229.8H263.491V220.115H261.801L258.655 224.483L255.431 220.115H253.741V229.8ZM267.346 229.956C268.265 229.956 269.002 229.652 269.556 229.046V229.8H271.168V225.094C271.168 224.6 271.043 224.162 270.791 223.781C270.54 223.399 270.193 223.105 269.751 222.897C269.318 222.68 268.811 222.572 268.23 222.572C267.52 222.572 266.887 222.741 266.332 223.079C265.778 223.417 265.396 223.863 265.188 224.418L266.579 225.094C266.709 224.773 266.913 224.517 267.19 224.327C267.468 224.127 267.793 224.028 268.165 224.028C268.555 224.028 268.867 224.132 269.101 224.34C269.344 224.539 269.465 224.79 269.465 225.094V225.328L267.359 225.666C266.527 225.804 265.912 226.069 265.513 226.459C265.115 226.849 264.915 227.338 264.915 227.928C264.915 228.552 265.136 229.046 265.578 229.41C266.02 229.774 266.61 229.956 267.346 229.956ZM266.683 227.863C266.683 227.369 267.017 227.057 267.684 226.927L269.465 226.628V226.914C269.465 227.399 269.296 227.811 268.958 228.149C268.629 228.487 268.196 228.656 267.658 228.656C267.372 228.656 267.138 228.586 266.956 228.448C266.774 228.3 266.683 228.105 266.683 227.863ZM272.742 229.8H274.445V225.861C274.445 225.323 274.593 224.907 274.887 224.613C275.191 224.309 275.581 224.158 276.057 224.158H276.668V222.65H276.252C275.819 222.65 275.438 222.728 275.108 222.884C274.779 223.04 274.523 223.321 274.341 223.729V222.728H272.742V229.8ZM279.72 229.8H286.22V228.305H282.021L284.296 225.913C284.911 225.271 285.362 224.704 285.648 224.21C285.943 223.716 286.09 223.204 286.09 222.676C286.09 222.138 285.956 221.666 285.687 221.259C285.427 220.851 285.059 220.535 284.582 220.31C284.114 220.076 283.568 219.959 282.944 219.959C282.424 219.959 281.93 220.063 281.462 220.271C281.003 220.47 280.613 220.76 280.292 221.142C279.971 221.514 279.759 221.956 279.655 222.468L281.202 222.949C281.341 222.489 281.562 222.143 281.865 221.909C282.168 221.666 282.528 221.545 282.944 221.545C283.343 221.545 283.668 221.662 283.919 221.896C284.179 222.13 284.309 222.45 284.309 222.858C284.309 223.1 284.253 223.339 284.14 223.573C284.027 223.807 283.828 224.088 283.542 224.418C283.256 224.747 282.857 225.18 282.346 225.718L279.72 228.474V229.8ZM289.128 229.8H290.896V220.115H287.256V221.623H289.128V229.8ZM293.825 227.278H299.675V225.809H293.825V227.278ZM301.52 229.8H303.431L304.133 227.72H307.877L308.566 229.8H310.49L307.149 220.115H304.861L301.52 229.8ZM304.64 226.16L306.005 222.078L307.37 226.16H304.64ZM311.425 232.4H313.128V229.124C313.388 229.392 313.704 229.6 314.077 229.748C314.45 229.886 314.853 229.956 315.286 229.956C315.971 229.956 316.582 229.795 317.119 229.475C317.656 229.145 318.081 228.703 318.393 228.149C318.705 227.585 318.861 226.957 318.861 226.264C318.861 225.57 318.705 224.946 318.393 224.392C318.081 223.828 317.656 223.386 317.119 223.066C316.582 222.736 315.975 222.572 315.299 222.572C314.814 222.572 314.376 222.658 313.986 222.832C313.596 223.005 313.275 223.248 313.024 223.56V222.728H311.425V232.4ZM315.091 228.396C314.718 228.396 314.38 228.305 314.077 228.123C313.782 227.941 313.548 227.689 313.375 227.369C313.21 227.048 313.128 226.68 313.128 226.264C313.128 225.848 313.21 225.479 313.375 225.159C313.548 224.838 313.782 224.587 314.077 224.405C314.38 224.223 314.718 224.132 315.091 224.132C315.481 224.132 315.823 224.227 316.118 224.418C316.421 224.6 316.66 224.851 316.833 225.172C317.006 225.492 317.093 225.856 317.093 226.264C317.093 226.671 317.006 227.039 316.833 227.369C316.66 227.689 316.421 227.941 316.118 228.123C315.823 228.305 315.481 228.396 315.091 228.396ZM320.159 229.8H321.862V225.861C321.862 225.323 322.01 224.907 322.304 224.613C322.608 224.309 322.998 224.158 323.474 224.158H324.085V222.65H323.669C323.236 222.65 322.855 222.728 322.525 222.884C322.196 223.04 321.94 223.321 321.758 223.729V222.728H320.159V229.8ZM327.137 229.8H333.637V228.305H329.438L331.713 225.913C332.328 225.271 332.779 224.704 333.065 224.21C333.36 223.716 333.507 223.204 333.507 222.676C333.507 222.138 333.373 221.666 333.104 221.259C332.844 220.851 332.476 220.535 331.999 220.31C331.531 220.076 330.985 219.959 330.361 219.959C329.841 219.959 329.347 220.063 328.879 220.271C328.42 220.47 328.03 220.76 327.709 221.142C327.388 221.514 327.176 221.956 327.072 222.468L328.619 222.949C328.758 222.489 328.979 222.143 329.282 221.909C329.585 221.666 329.945 221.545 330.361 221.545C330.76 221.545 331.085 221.662 331.336 221.896C331.596 222.13 331.726 222.45 331.726 222.858C331.726 223.1 331.67 223.339 331.557 223.573C331.444 223.807 331.245 224.088 330.959 224.418C330.673 224.747 330.274 225.18 329.763 225.718L327.137 228.474V229.8ZM338.898 229.956C339.678 229.956 340.358 229.748 340.939 229.332C341.52 228.907 341.97 228.322 342.291 227.577C342.62 226.823 342.785 225.947 342.785 224.951C342.785 223.954 342.62 223.083 342.291 222.338C341.97 221.584 341.515 220.999 340.926 220.583C340.345 220.167 339.665 219.959 338.885 219.959C338.122 219.959 337.451 220.167 336.87 220.583C336.289 220.999 335.834 221.579 335.505 222.325C335.184 223.07 335.024 223.945 335.024 224.951C335.024 225.947 335.184 226.823 335.505 227.577C335.834 228.331 336.289 228.916 336.87 229.332C337.459 229.748 338.135 229.956 338.898 229.956ZM338.898 228.344C338.239 228.344 337.724 228.04 337.351 227.434C336.978 226.827 336.792 225.999 336.792 224.951C336.792 223.893 336.974 223.066 337.338 222.468C337.711 221.87 338.226 221.571 338.885 221.571C339.552 221.571 340.072 221.874 340.445 222.481C340.826 223.079 341.017 223.902 341.017 224.951C341.017 225.999 340.831 226.827 340.458 227.434C340.085 228.04 339.565 228.344 338.898 228.344Z" fill="#D4D4D8"/>
<path d="M72.5 307.3C72.5 304.815 74.5147 302.8 77 302.8C79.4853 302.8 81.5 304.815 81.5 307.3V418.8H72.5V307.3Z" fill="#E4E4E7"/>
<path d="M101.5 272.3C101.5 269.815 103.515 267.8 106 267.8C108.485 267.8 110.5 269.815 110.5 272.3V418.8H101.5V272.3Z" fill="#E4E4E7"/>
<path d="M130.5 326.3C130.5 323.815 132.515 321.8 135 321.8C137.485 321.8 139.5 323.815 139.5 326.3V418.8H130.5V326.3Z" fill="#E4E4E7"/>
<path d="M159.5 298.3C159.5 295.815 161.515 293.8 164 293.8C166.485 293.8 168.5 295.815 168.5 298.3V418.8H159.5V298.3Z" fill="#E4E4E7"/>
<path d="M188.5 282.3C188.5 279.815 190.515 277.8 193 277.8C195.485 277.8 197.5 279.815 197.5 282.3V418.8H188.5V282.3Z" fill="#E4E4E7"/>
<path d="M217.5 353.3C217.5 350.815 219.515 348.8 222 348.8C224.485 348.8 226.5 350.815 226.5 353.3V418.8H217.5V353.3Z" fill="#E4E4E7"/>
<path d="M246.5 307.3C246.5 304.815 248.515 302.8 251 302.8C253.485 302.8 255.5 304.815 255.5 307.3V418.8H246.5V307.3Z" fill="#E4E4E7"/>
<path d="M275.5 326.3C275.5 323.815 277.515 321.8 280 321.8C282.485 321.8 284.5 323.815 284.5 326.3V418.8H275.5V326.3Z" fill="#E4E4E7"/>
<path d="M304.5 291.3C304.5 288.815 306.515 286.8 309 286.8C311.485 286.8 313.5 288.815 313.5 291.3V418.8H304.5V291.3Z" fill="#E4E4E7"/>
<path d="M333.5 298.3C333.5 295.815 335.515 293.8 338 293.8C340.485 293.8 342.5 295.815 342.5 298.3V418.8H333.5V298.3Z" fill="#E4E4E7"/>
<g filter="url(#filter2_d_5419_11623)">
<rect x="50.5" y="108.8" width="314" height="71" rx="10" fill="#18181B"/>
</g>
<path d="M73.906 159.8H75.687V155.497L78.937 150.115H76.922L74.79 153.716L72.658 150.115H70.643L73.906 155.51V159.8ZM82.127 159.956C82.8116 159.956 83.4356 159.8 83.999 159.488C84.5623 159.167 85.013 158.729 85.351 158.175C85.689 157.611 85.858 156.974 85.858 156.264C85.858 155.553 85.689 154.92 85.351 154.366C85.0216 153.811 84.5753 153.373 84.012 153.053C83.4486 152.732 82.8203 152.572 82.127 152.572C81.425 152.572 80.7923 152.732 80.229 153.053C79.6656 153.373 79.215 153.811 78.877 154.366C78.5476 154.92 78.383 155.553 78.383 156.264C78.383 156.974 78.5476 157.607 78.877 158.162C79.215 158.716 79.6656 159.154 80.229 159.475C80.801 159.795 81.4336 159.956 82.127 159.956ZM82.127 158.396C81.7456 158.396 81.4033 158.305 81.1 158.123C80.8053 157.941 80.5713 157.689 80.398 157.369C80.2333 157.039 80.151 156.671 80.151 156.264C80.151 155.856 80.2333 155.492 80.398 155.172C80.5713 154.851 80.8053 154.6 81.1 154.418C81.4033 154.227 81.7456 154.132 82.127 154.132C82.5083 154.132 82.842 154.227 83.128 154.418C83.4226 154.6 83.6523 154.851 83.817 155.172C83.9903 155.492 84.077 155.856 84.077 156.264C84.077 156.671 83.9903 157.039 83.817 157.369C83.6523 157.689 83.4226 157.941 83.128 158.123C82.842 158.305 82.5083 158.396 82.127 158.396ZM89.6714 159.956C90.1134 159.956 90.5034 159.873 90.8414 159.709C91.1881 159.535 91.4611 159.284 91.6604 158.955V159.8H93.2724V152.728H91.5694V156.875C91.5694 157.343 91.4351 157.715 91.1664 157.993C90.8978 158.261 90.5554 158.396 90.1394 158.396C89.7148 158.396 89.3681 158.261 89.0994 157.993C88.8394 157.724 88.7094 157.364 88.7094 156.914V152.728H87.0064V157.057C87.0064 157.923 87.2404 158.625 87.7084 159.163C88.1851 159.691 88.8394 159.956 89.6714 159.956ZM97.166 159.8H98.869V155.653C98.869 155.193 99.0034 154.825 99.272 154.548C99.5407 154.27 99.883 154.132 100.299 154.132C100.715 154.132 101.057 154.27 101.326 154.548C101.595 154.816 101.729 155.185 101.729 155.653V159.8H103.432V155.25C103.432 154.721 103.319 154.257 103.094 153.859C102.869 153.451 102.552 153.135 102.145 152.91C101.746 152.684 101.287 152.572 100.767 152.572C100.36 152.572 99.9914 152.645 99.662 152.793C99.3327 152.931 99.0684 153.144 98.869 153.43V149.959H97.166V159.8ZM107.017 159.956C107.936 159.956 108.672 159.652 109.227 159.046V159.8H110.839V155.094C110.839 154.6 110.713 154.162 110.462 153.781C110.211 153.399 109.864 153.105 109.422 152.897C108.989 152.68 108.482 152.572 107.901 152.572C107.19 152.572 106.558 152.741 106.003 153.079C105.448 153.417 105.067 153.863 104.859 154.418L106.25 155.094C106.38 154.773 106.584 154.517 106.861 154.327C107.138 154.127 107.463 154.028 107.836 154.028C108.226 154.028 108.538 154.132 108.772 154.34C109.015 154.539 109.136 154.79 109.136 155.094V155.328L107.03 155.666C106.198 155.804 105.583 156.069 105.184 156.459C104.785 156.849 104.586 157.338 104.586 157.928C104.586 158.552 104.807 159.046 105.249 159.41C105.691 159.774 106.28 159.956 107.017 159.956ZM106.354 157.863C106.354 157.369 106.688 157.057 107.355 156.927L109.136 156.628V156.914C109.136 157.399 108.967 157.811 108.629 158.149C108.3 158.487 107.866 158.656 107.329 158.656C107.043 158.656 106.809 158.586 106.627 158.448C106.445 158.3 106.354 158.105 106.354 157.863ZM114.418 159.8H115.926L118.708 152.728H116.849L115.172 157.343L113.495 152.728H111.636L114.418 159.8ZM122.876 159.956C123.596 159.956 124.224 159.795 124.761 159.475C125.307 159.145 125.689 158.729 125.905 158.227L124.527 157.551C124.371 157.819 124.155 158.04 123.877 158.214C123.609 158.378 123.279 158.461 122.889 158.461C122.378 158.461 121.949 158.305 121.602 157.993C121.256 157.681 121.056 157.265 121.004 156.745H126.1C126.135 156.649 126.157 156.541 126.165 156.42C126.183 156.29 126.191 156.16 126.191 156.03C126.191 155.397 126.057 154.821 125.788 154.301C125.52 153.781 125.13 153.365 124.618 153.053C124.107 152.732 123.483 152.572 122.746 152.572C122.088 152.572 121.49 152.732 120.952 153.053C120.424 153.373 120.003 153.811 119.691 154.366C119.388 154.912 119.236 155.54 119.236 156.251C119.236 156.935 119.388 157.559 119.691 158.123C119.995 158.686 120.419 159.132 120.965 159.462C121.511 159.791 122.148 159.956 122.876 159.956ZM122.746 153.976C123.197 153.976 123.57 154.114 123.864 154.392C124.168 154.66 124.337 155.011 124.371 155.445H121.043C121.139 154.977 121.338 154.617 121.641 154.366C121.953 154.106 122.322 153.976 122.746 153.976ZM129.793 159.8H131.496V155.653C131.496 155.193 131.622 154.825 131.873 154.548C132.124 154.27 132.454 154.132 132.861 154.132C133.277 154.132 133.606 154.27 133.849 154.548C134.1 154.816 134.226 155.185 134.226 155.653V159.8H135.929V155.653C135.929 155.193 136.055 154.825 136.306 154.548C136.557 154.27 136.887 154.132 137.294 154.132C137.71 154.132 138.039 154.27 138.282 154.548C138.533 154.816 138.659 155.185 138.659 155.653V159.8H140.362V155.25C140.362 154.721 140.245 154.257 140.011 153.859C139.786 153.451 139.478 153.135 139.088 152.91C138.698 152.684 138.252 152.572 137.749 152.572C137.281 152.572 136.856 152.667 136.475 152.858C136.102 153.048 135.795 153.334 135.552 153.716C135.344 153.369 135.045 153.092 134.655 152.884C134.274 152.676 133.845 152.572 133.368 152.572C132.926 152.572 132.532 152.658 132.185 152.832C131.838 153.005 131.574 153.265 131.392 153.612V152.728H129.793V159.8ZM143.948 159.956C144.866 159.956 145.603 159.652 146.158 159.046V159.8H147.77V155.094C147.77 154.6 147.644 154.162 147.393 153.781C147.141 153.399 146.795 153.105 146.353 152.897C145.919 152.68 145.412 152.572 144.832 152.572C144.121 152.572 143.488 152.741 142.934 153.079C142.379 153.417 141.998 153.863 141.79 154.418L143.181 155.094C143.311 154.773 143.514 154.517 143.792 154.327C144.069 154.127 144.394 154.028 144.767 154.028C145.157 154.028 145.469 154.132 145.703 154.34C145.945 154.539 146.067 154.79 146.067 155.094V155.328L143.961 155.666C143.129 155.804 142.513 156.069 142.115 156.459C141.716 156.849 141.517 157.338 141.517 157.928C141.517 158.552 141.738 159.046 142.18 159.41C142.622 159.774 143.211 159.956 143.948 159.956ZM143.285 157.863C143.285 157.369 143.618 157.057 144.286 156.927L146.067 156.628V156.914C146.067 157.399 145.898 157.811 145.56 158.149C145.23 158.487 144.797 158.656 144.26 158.656C143.974 158.656 143.74 158.586 143.558 158.448C143.376 158.3 143.285 158.105 143.285 157.863ZM152.633 159.956C153.092 159.956 153.517 159.878 153.907 159.722C154.297 159.557 154.622 159.323 154.882 159.02V159.8H156.494V149.959H154.791V153.443C154.262 152.862 153.538 152.572 152.62 152.572C151.952 152.572 151.346 152.736 150.8 153.066C150.262 153.386 149.838 153.828 149.526 154.392C149.214 154.946 149.058 155.57 149.058 156.264C149.058 156.957 149.214 157.585 149.526 158.149C149.838 158.703 150.262 159.145 150.8 159.475C151.337 159.795 151.948 159.956 152.633 159.956ZM152.815 158.396C152.433 158.396 152.091 158.305 151.788 158.123C151.484 157.941 151.246 157.689 151.073 157.369C150.908 157.039 150.826 156.671 150.826 156.264C150.826 155.856 150.908 155.492 151.073 155.172C151.246 154.851 151.484 154.6 151.788 154.418C152.091 154.227 152.433 154.132 152.815 154.132C153.196 154.132 153.534 154.223 153.829 154.405C154.132 154.587 154.366 154.838 154.531 155.159C154.704 155.479 154.791 155.848 154.791 156.264C154.791 156.68 154.704 157.048 154.531 157.369C154.366 157.689 154.132 157.941 153.829 158.123C153.534 158.305 153.196 158.396 152.815 158.396ZM161.432 159.956C162.151 159.956 162.78 159.795 163.317 159.475C163.863 159.145 164.244 158.729 164.461 158.227L163.083 157.551C162.927 157.819 162.71 158.04 162.433 158.214C162.164 158.378 161.835 158.461 161.445 158.461C160.934 158.461 160.505 158.305 160.158 157.993C159.811 157.681 159.612 157.265 159.56 156.745H164.656C164.691 156.649 164.712 156.541 164.721 156.42C164.738 156.29 164.747 156.16 164.747 156.03C164.747 155.397 164.613 154.821 164.344 154.301C164.075 153.781 163.685 153.365 163.174 153.053C162.663 152.732 162.039 152.572 161.302 152.572C160.643 152.572 160.045 152.732 159.508 153.053C158.979 153.373 158.559 153.811 158.247 154.366C157.944 154.912 157.792 155.54 157.792 156.251C157.792 156.935 157.944 157.559 158.247 158.123C158.55 158.686 158.975 159.132 159.521 159.462C160.067 159.791 160.704 159.956 161.432 159.956ZM161.302 153.976C161.753 153.976 162.125 154.114 162.42 154.392C162.723 154.66 162.892 155.011 162.927 155.445H159.599C159.694 154.977 159.894 154.617 160.197 154.366C160.509 154.106 160.877 153.976 161.302 153.976ZM171.326 161.1H172.431V159.93C173.003 159.878 173.505 159.726 173.939 159.475C174.372 159.215 174.71 158.885 174.953 158.487C175.195 158.088 175.317 157.633 175.317 157.122C175.317 155.83 174.545 154.938 173.003 154.444L172.431 154.262V151.623C173.098 151.848 173.57 152.316 173.848 153.027L175.304 152.377C175.087 151.761 174.723 151.246 174.212 150.83C173.709 150.414 173.115 150.145 172.431 150.024V148.815H171.326V149.972C170.754 150.015 170.247 150.162 169.805 150.414C169.371 150.656 169.033 150.981 168.791 151.389C168.548 151.796 168.427 152.26 168.427 152.78C168.427 153.412 168.617 153.963 168.999 154.431C169.38 154.89 169.948 155.241 170.702 155.484L171.326 155.679V158.305C170.936 158.201 170.585 158.006 170.273 157.72C169.961 157.425 169.714 157.061 169.532 156.628L168.063 157.265C168.297 157.975 168.704 158.569 169.285 159.046C169.865 159.514 170.546 159.804 171.326 159.917V161.1ZM171.222 153.885C170.875 153.772 170.611 153.616 170.429 153.417C170.255 153.209 170.169 152.97 170.169 152.702C170.169 152.39 170.273 152.13 170.481 151.922C170.689 151.714 170.97 151.584 171.326 151.532V153.924L171.222 153.885ZM172.561 156.082C172.899 156.194 173.15 156.342 173.315 156.524C173.488 156.706 173.575 156.94 173.575 157.226C173.575 157.529 173.471 157.785 173.263 157.993C173.055 158.192 172.777 158.322 172.431 158.383V156.043L172.561 156.082ZM179.782 159.956C180.458 159.956 181.056 159.813 181.576 159.527C182.104 159.232 182.52 158.838 182.824 158.344C183.127 157.85 183.279 157.291 183.279 156.667C183.279 155.904 183.058 155.271 182.616 154.769C182.182 154.257 181.606 153.945 180.887 153.833L182.876 151.506V150.115H176.935V151.61H180.887L178.378 154.47L178.781 155.315C179.075 155.176 179.405 155.107 179.769 155.107C180.297 155.107 180.718 155.25 181.03 155.536C181.35 155.822 181.511 156.216 181.511 156.719C181.511 157.221 181.35 157.624 181.03 157.928C180.709 158.222 180.293 158.37 179.782 158.37C179.357 158.37 178.98 158.253 178.651 158.019C178.33 157.785 178.092 157.447 177.936 157.005L176.389 157.551C176.51 158.036 176.735 158.461 177.065 158.825C177.403 159.189 177.806 159.47 178.274 159.67C178.75 159.86 179.253 159.956 179.782 159.956ZM185.142 159.8H187.261L189.965 156.29C190.303 155.848 190.559 155.453 190.732 155.107C190.914 154.751 191.035 154.418 191.096 154.106C191.165 153.794 191.2 153.482 191.2 153.17C191.2 152.554 191.053 152.004 190.758 151.519C190.472 151.033 190.078 150.652 189.575 150.375C189.072 150.097 188.492 149.959 187.833 149.959C187.183 149.959 186.602 150.097 186.091 150.375C185.588 150.652 185.19 151.038 184.895 151.532C184.609 152.017 184.466 152.572 184.466 153.196C184.466 153.785 184.596 154.314 184.856 154.782C185.125 155.241 185.489 155.605 185.948 155.874C186.407 156.142 186.932 156.277 187.521 156.277C187.66 156.277 187.785 156.268 187.898 156.251L185.142 159.8ZM187.833 154.795C187.382 154.795 187.001 154.647 186.689 154.353C186.386 154.049 186.234 153.659 186.234 153.183C186.234 152.697 186.386 152.303 186.689 152C187.001 151.696 187.382 151.545 187.833 151.545C188.284 151.545 188.661 151.696 188.964 152C189.267 152.303 189.419 152.697 189.419 153.183C189.419 153.659 189.267 154.049 188.964 154.353C188.661 154.647 188.284 154.795 187.833 154.795ZM192.622 161.828C193.94 161.55 194.598 160.64 194.598 159.098V157.98H192.882V159.8H193.675C193.571 160.45 193.22 160.848 192.622 160.996V161.828ZM200.844 159.8H202.586V157.668H204.003V156.186H202.586V150.115H200.74L196.398 156.186V157.668H200.844V159.8ZM200.844 156.186H198.14L200.844 152.299V156.186ZM205.658 159.8H207.777L210.481 156.29C210.819 155.848 211.074 155.453 211.248 155.107C211.43 154.751 211.551 154.418 211.612 154.106C211.681 153.794 211.716 153.482 211.716 153.17C211.716 152.554 211.568 152.004 211.274 151.519C210.988 151.033 210.593 150.652 210.091 150.375C209.588 150.097 209.007 149.959 208.349 149.959C207.699 149.959 207.118 150.097 206.607 150.375C206.104 150.652 205.705 151.038 205.411 151.532C205.125 152.017 204.982 152.572 204.982 153.196C204.982 153.785 205.112 154.314 205.372 154.782C205.64 155.241 206.004 155.605 206.464 155.874C206.923 156.142 207.447 156.277 208.037 156.277C208.175 156.277 208.301 156.268 208.414 156.251L205.658 159.8ZM208.349 154.795C207.898 154.795 207.517 154.647 207.205 154.353C206.901 154.049 206.75 153.659 206.75 153.183C206.75 152.697 206.901 152.303 207.205 152C207.517 151.696 207.898 151.545 208.349 151.545C208.799 151.545 209.176 151.696 209.48 152C209.783 152.303 209.935 152.697 209.935 153.183C209.935 153.659 209.783 154.049 209.48 154.353C209.176 154.647 208.799 154.795 208.349 154.795ZM212.854 159.8H219.354V158.305H215.155L217.43 155.913C218.045 155.271 218.496 154.704 218.782 154.21C219.077 153.716 219.224 153.204 219.224 152.676C219.224 152.138 219.09 151.666 218.821 151.259C218.561 150.851 218.193 150.535 217.716 150.31C217.248 150.076 216.702 149.959 216.078 149.959C215.558 149.959 215.064 150.063 214.596 150.271C214.137 150.47 213.747 150.76 213.426 151.142C213.105 151.514 212.893 151.956 212.789 152.468L214.336 152.949C214.475 152.489 214.696 152.143 214.999 151.909C215.302 151.666 215.662 151.545 216.078 151.545C216.477 151.545 216.802 151.662 217.053 151.896C217.313 152.13 217.443 152.45 217.443 152.858C217.443 153.1 217.387 153.339 217.274 153.573C217.161 153.807 216.962 154.088 216.676 154.418C216.39 154.747 215.991 155.18 215.48 155.718L212.854 158.474V159.8ZM226.34 159.878C226.626 159.878 226.908 159.856 227.185 159.813V158.344C227.021 158.37 226.869 158.383 226.73 158.383C226.314 158.383 226.011 158.287 225.82 158.097C225.63 157.906 225.534 157.633 225.534 157.278V154.249H227.159V152.728H225.534V151.116H223.831V151.662C223.831 152.008 223.736 152.273 223.545 152.455C223.355 152.637 223.086 152.728 222.739 152.728H222.609V154.249H223.831V157.369C223.831 158.157 224.048 158.773 224.481 159.215C224.923 159.657 225.543 159.878 226.34 159.878ZM228.486 159.8H230.189V155.653C230.189 155.193 230.324 154.825 230.592 154.548C230.861 154.27 231.203 154.132 231.619 154.132C232.035 154.132 232.378 154.27 232.646 154.548C232.915 154.816 233.049 155.185 233.049 155.653V159.8H234.752V155.25C234.752 154.721 234.64 154.257 234.414 153.859C234.189 153.451 233.873 153.135 233.465 152.91C233.067 152.684 232.607 152.572 232.087 152.572C231.68 152.572 231.312 152.645 230.982 152.793C230.653 152.931 230.389 153.144 230.189 153.43V149.959H228.486V159.8ZM236.192 151.935H237.895V150.115H236.192V151.935ZM236.192 159.8H237.895V152.728H236.192V159.8ZM242.159 159.956C242.696 159.956 243.164 159.865 243.563 159.683C243.961 159.501 244.273 159.249 244.499 158.929C244.724 158.599 244.837 158.222 244.837 157.798C244.837 157.304 244.681 156.879 244.369 156.524C244.057 156.168 243.606 155.908 243.017 155.744L241.886 155.406C241.643 155.336 241.444 155.245 241.288 155.133C241.132 155.02 241.054 154.864 241.054 154.665C241.054 154.457 241.136 154.288 241.301 154.158C241.465 154.028 241.691 153.963 241.977 153.963C242.332 153.963 242.653 154.058 242.939 154.249C243.233 154.439 243.437 154.695 243.55 155.016L244.85 154.405C244.633 153.833 244.269 153.386 243.758 153.066C243.246 152.736 242.657 152.572 241.99 152.572C241.478 152.572 241.023 152.663 240.625 152.845C240.235 153.027 239.927 153.282 239.702 153.612C239.485 153.932 239.377 154.309 239.377 154.743C239.377 155.228 239.528 155.648 239.832 156.004C240.144 156.359 240.599 156.623 241.197 156.797L242.354 157.122C242.579 157.182 242.77 157.273 242.926 157.395C243.09 157.507 243.173 157.663 243.173 157.863C243.173 158.097 243.077 158.283 242.887 158.422C242.705 158.552 242.462 158.617 242.159 158.617C241.76 158.617 241.4 158.504 241.08 158.279C240.759 158.053 240.503 157.741 240.313 157.343L239.039 157.954C239.247 158.56 239.628 159.046 240.183 159.41C240.746 159.774 241.405 159.956 242.159 159.956ZM250.237 159.8H251.745L253.409 155.029L255.047 159.8H256.568L258.999 152.728H257.205L255.723 157.174L254.163 152.728H252.655L251.082 157.187L249.6 152.728H247.806L250.237 159.8ZM263.16 159.956C263.879 159.956 264.507 159.795 265.045 159.475C265.591 159.145 265.972 158.729 266.189 158.227L264.811 157.551C264.655 157.819 264.438 158.04 264.161 158.214C263.892 158.378 263.563 158.461 263.173 158.461C262.661 158.461 262.232 158.305 261.886 157.993C261.539 157.681 261.34 157.265 261.288 156.745H266.384C266.418 156.649 266.44 156.541 266.449 156.42C266.466 156.29 266.475 156.16 266.475 156.03C266.475 155.397 266.34 154.821 266.072 154.301C265.803 153.781 265.413 153.365 264.902 153.053C264.39 152.732 263.766 152.572 263.03 152.572C262.371 152.572 261.773 152.732 261.236 153.053C260.707 153.373 260.287 153.811 259.975 154.366C259.671 154.912 259.52 155.54 259.52 156.251C259.52 156.935 259.671 157.559 259.975 158.123C260.278 158.686 260.703 159.132 261.249 159.462C261.795 159.791 262.432 159.956 263.16 159.956ZM263.03 153.976C263.48 153.976 263.853 154.114 264.148 154.392C264.451 154.66 264.62 155.011 264.655 155.445H261.327C261.422 154.977 261.621 154.617 261.925 154.366C262.237 154.106 262.605 153.976 263.03 153.976ZM271.12 159.956C271.839 159.956 272.467 159.795 273.005 159.475C273.551 159.145 273.932 158.729 274.149 158.227L272.771 157.551C272.615 157.819 272.398 158.04 272.121 158.214C271.852 158.378 271.523 158.461 271.133 158.461C270.621 158.461 270.192 158.305 269.846 157.993C269.499 157.681 269.3 157.265 269.248 156.745H274.344C274.378 156.649 274.4 156.541 274.409 156.42C274.426 156.29 274.435 156.16 274.435 156.03C274.435 155.397 274.3 154.821 274.032 154.301C273.763 153.781 273.373 153.365 272.862 153.053C272.35 152.732 271.726 152.572 270.99 152.572C270.331 152.572 269.733 152.732 269.196 153.053C268.667 153.373 268.247 153.811 267.935 154.366C267.631 154.912 267.48 155.54 267.48 156.251C267.48 156.935 267.631 157.559 267.935 158.123C268.238 158.686 268.663 159.132 269.209 159.462C269.755 159.791 270.392 159.956 271.12 159.956ZM270.99 153.976C271.44 153.976 271.813 154.114 272.108 154.392C272.411 154.66 272.58 155.011 272.615 155.445H269.287C269.382 154.977 269.581 154.617 269.885 154.366C270.197 154.106 270.565 153.976 270.99 153.976ZM275.726 159.8H277.429V157.642L278.339 156.654L280.328 159.8H282.278L279.613 155.575L282.226 152.728H280.107L277.429 155.536V149.959H275.726V159.8ZM284.1 156.862H285.595L285.712 150.115H283.983L284.1 156.862ZM283.983 159.8H285.712V157.98H283.983V159.8Z" fill="white"/>
<path d="M71.579 137.8H72.853V128.115H71.579V137.8ZM74.8637 137.8H76.0727V133.653C76.0727 133.081 76.2331 132.63 76.5537 132.301C76.8744 131.971 77.2817 131.807 77.7757 131.807C78.2697 131.807 78.6727 131.971 78.9847 132.301C79.2967 132.621 79.4527 133.072 79.4527 133.653V137.8H80.6747V133.263C80.6747 132.76 80.5577 132.314 80.3237 131.924C80.0984 131.525 79.7864 131.213 79.3877 130.988C78.9977 130.754 78.5514 130.637 78.0487 130.637C77.6154 130.637 77.2254 130.728 76.8787 130.91C76.5321 131.083 76.2547 131.33 76.0467 131.651V130.793H74.8637V137.8ZM84.9138 137.956C85.4164 137.956 85.8584 137.869 86.2398 137.696C86.6211 137.522 86.9201 137.284 87.1368 136.981C87.3534 136.669 87.4618 136.313 87.4618 135.915C87.4618 135.429 87.3014 135.013 86.9808 134.667C86.6601 134.32 86.2181 134.064 85.6548 133.9L84.5108 133.562C84.3721 133.518 84.2291 133.466 84.0818 133.406C83.9344 133.336 83.8088 133.241 83.7048 133.12C83.6008 132.99 83.5488 132.825 83.5488 132.626C83.5488 132.348 83.6528 132.123 83.8608 131.95C84.0774 131.776 84.3591 131.69 84.7058 131.69C85.0871 131.69 85.4338 131.798 85.7458 132.015C86.0664 132.223 86.3048 132.509 86.4608 132.873L87.4488 132.418C87.2408 131.854 86.8898 131.417 86.3958 131.105C85.9104 130.793 85.3601 130.637 84.7448 130.637C84.2854 130.637 83.8694 130.723 83.4968 130.897C83.1328 131.07 82.8424 131.313 82.6258 131.625C82.4178 131.928 82.3138 132.288 82.3138 132.704C82.3138 133.154 82.4568 133.553 82.7428 133.9C83.0374 134.238 83.5011 134.493 84.1338 134.667L85.1868 134.966C85.3341 135 85.4858 135.057 85.6418 135.135C85.8064 135.204 85.9451 135.304 86.0578 135.434C86.1791 135.555 86.2398 135.72 86.2398 135.928C86.2398 136.222 86.1141 136.461 85.8628 136.643C85.6114 136.825 85.2951 136.916 84.9138 136.916C84.4891 136.916 84.1034 136.799 83.7568 136.565C83.4101 136.322 83.1371 135.988 82.9378 135.564L81.9758 136.032C82.1924 136.621 82.5608 137.089 83.0808 137.436C83.6008 137.782 84.2118 137.956 84.9138 137.956ZM89.0444 129.675H90.2534V128.115H89.0444V129.675ZM89.0444 137.8H90.2534V130.793H89.0444V137.8ZM95.4704 140.66C96.1204 140.66 96.6967 140.521 97.1994 140.244C97.7107 139.975 98.1094 139.602 98.3954 139.126C98.6814 138.649 98.8244 138.107 98.8244 137.501V130.793H97.6414V131.768C97.364 131.412 97.0217 131.135 96.6144 130.936C96.207 130.736 95.7564 130.637 95.2624 130.637C94.6037 130.637 94.0144 130.793 93.4944 131.105C92.983 131.408 92.58 131.824 92.2854 132.353C91.9907 132.881 91.8434 133.475 91.8434 134.134C91.8434 134.792 91.9907 135.386 92.2854 135.915C92.5887 136.443 92.996 136.864 93.5074 137.176C94.0274 137.479 94.6167 137.631 95.2754 137.631C95.752 137.631 96.194 137.535 96.6014 137.345C97.0087 137.154 97.3424 136.881 97.6024 136.526V137.501C97.6024 137.925 97.5027 138.285 97.3034 138.58C97.1127 138.883 96.857 139.108 96.5364 139.256C96.2157 139.412 95.856 139.49 95.4574 139.49C94.9374 139.49 94.504 139.373 94.1574 139.139C93.8194 138.913 93.5897 138.636 93.4684 138.307L92.3374 138.827C92.5714 139.373 92.9657 139.815 93.5204 140.153C94.075 140.491 94.725 140.66 95.4704 140.66ZM95.3794 136.461C94.946 136.461 94.556 136.357 94.2094 136.149C93.8714 135.941 93.6027 135.663 93.4034 135.317C93.2127 134.961 93.1174 134.567 93.1174 134.134C93.1174 133.7 93.217 133.31 93.4164 132.964C93.6157 132.608 93.8844 132.327 94.2224 132.119C94.569 131.911 94.9547 131.807 95.3794 131.807C95.7954 131.807 96.1724 131.911 96.5104 132.119C96.8484 132.327 97.1127 132.608 97.3034 132.964C97.5027 133.31 97.6024 133.7 97.6024 134.134C97.6024 134.558 97.5027 134.948 97.3034 135.304C97.1127 135.659 96.8484 135.941 96.5104 136.149C96.1724 136.357 95.7954 136.461 95.3794 136.461ZM100.699 137.8H101.908V133.653C101.908 133.081 102.068 132.63 102.389 132.301C102.718 131.971 103.125 131.807 103.611 131.807C104.096 131.807 104.495 131.971 104.807 132.301C105.127 132.621 105.288 133.072 105.288 133.653V137.8H106.51V133.263C106.51 132.76 106.393 132.314 106.159 131.924C105.933 131.525 105.621 131.213 105.223 130.988C104.833 130.754 104.386 130.637 103.884 130.637C103.459 130.637 103.073 130.723 102.727 130.897C102.389 131.061 102.116 131.3 101.908 131.612V127.959H100.699V137.8ZM111.087 137.878C111.182 137.878 111.299 137.873 111.438 137.865C111.576 137.856 111.702 137.839 111.815 137.813V136.734C111.737 136.742 111.654 136.751 111.568 136.76C111.481 136.768 111.403 136.773 111.334 136.773C110.909 136.773 110.606 136.669 110.424 136.461C110.25 136.244 110.164 135.958 110.164 135.603V131.95H111.737V130.793H110.164V129.181H108.955V129.753C108.955 130.073 108.864 130.329 108.682 130.52C108.5 130.702 108.253 130.793 107.941 130.793H107.681V131.95H108.955V135.642C108.955 136.352 109.137 136.903 109.501 137.293C109.873 137.683 110.402 137.878 111.087 137.878Z" fill="#A1A1AA"/>
<defs>
<filter id="filter0_f_5419_11623" x="0.5" y="194.8" width="412" height="293" filterUnits="userSpaceOnUse" color-interpolation-filters="sRGB">
<feFlood flood-opacity="0" result="BackgroundImageFix"/>
<feBlend mode="normal" in="SourceGraphic" in2="BackgroundImageFix" result="shape"/>
<feGaussianBlur stdDeviation="35" result="effect1_foregroundBlur_5419_11623"/>
</filter>
<filter id="filter1_d_5419_11623" x="46.5" y="201.8" width="322" height="246" filterUnits="userSpaceOnUse" color-interpolation-filters="sRGB">
<feFlood flood-opacity="0" result="BackgroundImageFix"/>
<feColorMatrix in="SourceAlpha" type="matrix" values="0 0 0 0 0 0 0 0 0 0 0 0 0 0 0 0 0 0 127 0" result="hardAlpha"/>
<feOffset dy="4"/>
<feGaussianBlur stdDeviation="2"/>
<feComposite in2="hardAlpha" operator="out"/>
<feColorMatrix type="matrix" values="0 0 0 0 0.1375 0 0 0 0 0.155242 0 0 0 0 0.4125 0 0 0 0.08 0"/>
<feBlend mode="normal" in2="BackgroundImageFix" result="effect1_dropShadow_5419_11623"/>
<feBlend mode="normal" in="SourceGraphic" in2="effect1_dropShadow_5419_11623" result="shape"/>
</filter>
<filter id="filter2_d_5419_11623" x="46.5" y="108.8" width="322" height="79" filterUnits="userSpaceOnUse" color-interpolation-filters="sRGB">
<feFlood flood-opacity="0" result="BackgroundImageFix"/>
<feColorMatrix in="SourceAlpha" type="matrix" values="0 0 0 0 0 0 0 0 0 0 0 0 0 0 0 0 0 0 127 0" result="hardAlpha"/>
<feOffset dy="4"/>
<feGaussianBlur stdDeviation="2"/>
<feComposite in2="hardAlpha" operator="out"/>
<feColorMatrix type="matrix" values="0 0 0 0 0.1375 0 0 0 0 0.155242 0 0 0 0 0.4125 0 0 0 0.08 0"/>
<feBlend mode="normal" in2="BackgroundImageFix" result="effect1_dropShadow_5419_11623"/>
<feBlend mode="normal" in="SourceGraphic" in2="effect1_dropShadow_5419_11623" result="shape"/>
</filter>
<linearGradient id="paint0_linear_5419_11623" x1="54.5" y1="38.7998" x2="97.1562" y2="51.0707" gradientUnits="userSpaceOnUse">
<stop stop-color="#2563EB"/>
<stop offset="1" stop-color="#5F4ADF"/>
</linearGradient>
<linearGradient id="paint1_linear_5419_11623" x1="69.0104" y1="341.3" x2="340.712" y2="341.3" gradientUnits="userSpaceOnUse">
<stop stop-color="#44FF9A"/>
<stop offset="0.234375" stop-color="#44B0FF"/>
<stop offset="0.489583" stop-color="#8B44FF"/>
<stop offset="0.739583" stop-color="#FF6644"/>
<stop offset="1" stop-color="#EBFF70"/>
</linearGradient>
</defs>
</svg>
