<svg width="25" height="24" viewBox="0 0 25 24" fill="none" xmlns="http://www.w3.org/2000/svg">
<path d="M16.31 20.18C16.05 20.18 15.78 20.17 15.49 20.14C14.97 20.1 14.38 20 13.77 19.85L12.09 19.45C7.48001 18.36 5.97001 15.92 7.05001 11.32L8.03001 7.13001C8.25001 6.18002 8.51001 5.41002 8.83001 4.77002C10.55 1.22002 13.84 1.54001 16.18 2.09001L17.85 2.48001C20.19 3.03001 21.67 3.90001 22.5 5.23002C23.32 6.56002 23.45 8.27001 22.9 10.61L21.92 14.79C21.06 18.45 19.27 20.18 16.31 20.18ZM13.62 3.25001C11.95 3.25001 10.89 3.94002 10.18 5.42002C9.92001 5.96002 9.69001 6.63001 9.49001 7.47001L8.51001 11.66C7.62001 15.44 8.65001 17.09 12.43 17.99L14.11 18.39C14.65 18.52 15.16 18.6 15.62 18.64C18.34 18.91 19.69 17.72 20.45 14.45L21.43 10.27C21.88 8.34002 21.82 6.99002 21.22 6.02001C20.62 5.05001 19.44 4.39002 17.5 3.94002L15.83 3.55001C15 3.35001 14.26 3.25001 13.62 3.25001Z" fill="#42526E"/>
<path d="M8.82999 22.25C6.25999 22.25 4.61999 20.71 3.56999 17.46L2.28999 13.51C0.869991 9.10999 2.13999 6.62999 6.51999 5.20999L8.09999 4.69999C8.61999 4.53999 9.00999 4.42999 9.35999 4.36999C9.64999 4.30999 9.92999 4.41999 10.1 4.64999C10.27 4.87999 10.3 5.17999 10.18 5.43999C9.91999 5.96999 9.68999 6.63999 9.49999 7.47999L8.51999 11.67C7.62999 15.45 8.65999 17.1 12.44 18L14.12 18.4C14.66 18.53 15.17 18.61 15.63 18.65C15.95 18.68 16.21 18.9 16.3 19.21C16.38 19.52 16.26 19.84 16 20.02C15.34 20.47 14.51 20.85 13.46 21.19L11.88 21.71C10.73 22.07 9.72999 22.25 8.82999 22.25ZM8.27999 6.21999L6.98999 6.63999C3.41999 7.78999 2.56999 9.46999 3.71999 13.05L4.99999 17C6.15999 20.57 7.83999 21.43 11.41 20.28L12.99 19.76C13.05 19.74 13.1 19.72 13.16 19.7L12.1 19.45C7.48999 18.36 5.97999 15.92 7.05999 11.32L8.03999 7.12999C8.10999 6.80999 8.18999 6.49999 8.27999 6.21999Z" fill="#42526E"/>
<path d="M17.99 10.51C17.93 10.51 17.87 10.5 17.8 10.49L12.95 9.25999C12.55 9.15999 12.31 8.74999 12.41 8.34999C12.51 7.94999 12.92 7.70999 13.32 7.80999L18.17 9.03999C18.57 9.13999 18.81 9.54999 18.71 9.94999C18.63 10.28 18.32 10.51 17.99 10.51Z" fill="#42526E"/>
<path d="M15.06 13.89C15 13.89 14.94 13.88 14.87 13.87L11.96 13.13C11.56 13.03 11.32 12.62 11.42 12.22C11.52 11.82 11.93 11.58 12.33 11.68L15.24 12.42C15.64 12.52 15.88 12.93 15.78 13.33C15.7 13.67 15.4 13.89 15.06 13.89Z" fill="#42526E"/>
</svg>
