<svg width="25" height="25" viewBox="0 0 25 25" fill="none" xmlns="http://www.w3.org/2000/svg">
<path d="M15.5 23.0229H9.5C4.07 23.0229 1.75 20.7029 1.75 15.2729V9.27295C1.75 3.84295 4.07 1.52295 9.5 1.52295H15.5C20.93 1.52295 23.25 3.84295 23.25 9.27295V15.2729C23.25 20.7029 20.93 23.0229 15.5 23.0229ZM9.5 3.02295C4.89 3.02295 3.25 4.66295 3.25 9.27295V15.2729C3.25 19.8829 4.89 21.5229 9.5 21.5229H15.5C20.11 21.5229 21.75 19.8829 21.75 15.2729V9.27295C21.75 4.66295 20.11 3.02295 15.5 3.02295H9.5Z" fill="#42526E"/>
<path d="M22.5 9.52295H2.53003C2.12003 9.52295 1.78003 9.18295 1.78003 8.77295C1.78003 8.36295 2.12003 8.02295 2.53003 8.02295H22.5C22.91 8.02295 23.25 8.36295 23.25 8.77295C23.25 9.18295 22.91 9.52295 22.5 9.52295Z" fill="#42526E"/>
<path d="M22.5 16.5229H2.53003C2.12003 16.5229 1.78003 16.1829 1.78003 15.7729C1.78003 15.3629 2.12003 15.0229 2.53003 15.0229H22.5C22.91 15.0229 23.25 15.3629 23.25 15.7729C23.25 16.1829 22.91 16.5229 22.5 16.5229Z" fill="#42526E"/>
<path d="M9.01001 23.013C8.60001 23.013 8.26001 22.673 8.26001 22.263V2.28296C8.26001 1.87296 8.60001 1.53296 9.01001 1.53296C9.42001 1.53296 9.76001 1.87296 9.76001 2.28296V22.253C9.76001 22.673 9.43001 23.013 9.01001 23.013Z" fill="#42526E"/>
<path d="M16.01 23.013C15.6 23.013 15.26 22.673 15.26 22.263V2.28296C15.26 1.87296 15.6 1.53296 16.01 1.53296C16.42 1.53296 16.76 1.87296 16.76 2.28296V22.253C16.76 22.673 16.43 23.013 16.01 23.013Z" fill="#42526E"/>
</svg>
