<svg width="25" height="24" viewBox="0 0 25 24" fill="none" xmlns="http://www.w3.org/2000/svg">
<path d="M15.27 19.75H9.76C9.32 19.75 8.75999 19.7 8.39 19.32C8.02999 18.95 8.04 18.49 8.05 18.18V17.29C5.53 15.61 3.87 12.69 3.87 9.91C3.87 7.28 5.05 4.82 7.1 3.17C9.14999 1.52 11.84 0.900001 14.47 1.48C16.97 2.03 19.13 3.7 20.25 5.95C22.42 10.32 20.33 15.05 16.99 17.3V18.05C17 18.34 17.01 18.87 16.6 19.29C16.29 19.59 15.85 19.75 15.27 19.75ZM9.54 18.24C9.59 18.24 9.66 18.25 9.75 18.25H15.27C15.37 18.25 15.44 18.24 15.48 18.23C15.48 18.2 15.48 18.16 15.48 18.13V16.87C15.48 16.61 15.62 16.36 15.84 16.23C18.8 14.44 20.76 10.35 18.89 6.6C17.97 4.75 16.19 3.38 14.13 2.93C11.95 2.45 9.72 2.96 8.02 4.33C6.32 5.7 5.35 7.73 5.35 9.91C5.35 12.69 7.27 15.09 9.17 16.24C9.4 16.38 9.52999 16.62 9.52999 16.88V18.23C9.54 18.23 9.54 18.23 9.54 18.24Z" fill="#42526E"/>
<path d="M16 22.75C15.93 22.75 15.86 22.74 15.79 22.72C13.63 22.1 11.36 22.1 9.20001 22.72C8.80001 22.83 8.39001 22.6 8.27001 22.2C8.15001 21.8 8.39001 21.39 8.79001 21.27C11.21 20.58 13.78 20.58 16.2 21.27C16.6 21.38 16.83 21.8 16.72 22.2C16.63 22.54 16.33 22.75 16 22.75Z" fill="#42526E"/>
</svg>
