<svg width="1440" height="768" viewBox="0 0 1440 768" fill="none" xmlns="http://www.w3.org/2000/svg">
<g clip-path="url(#clip0_1150_6046)">
<rect width="1440" height="768" fill="white"/>
<g opacity="0.25">
<path d="M1143.46 523.808H1029.6V738.407H1143.46V523.808Z" fill="#EBEBEB"/>
<path d="M1051.46 496.292V523.808H1060.45H1112.61H1121.6V496.292H1051.46Z" fill="#EBEBEB"/>
<path d="M1051.46 531.095H1036.88V545.669H1051.46V531.095Z" fill="#FAFAFA"/>
<path d="M1079.7 531.095H1065.13V545.669H1079.7V531.095Z" fill="#FAFAFA"/>
<path d="M1107.93 531.095H1093.35V545.669H1107.93V531.095Z" fill="#FAFAFA"/>
<path d="M1136.17 531.095H1121.6V545.669H1136.17V531.095Z" fill="#FAFAFA"/>
<path d="M1051.46 557.583H1036.88V572.157H1051.46V557.583Z" fill="#FAFAFA"/>
<path d="M1079.7 557.583H1065.13V572.157H1079.7V557.583Z" fill="#FAFAFA"/>
<path d="M1107.93 557.583H1093.35V572.157H1107.93V557.583Z" fill="#FAFAFA"/>
<path d="M1136.17 557.583H1121.6V572.157H1136.17V557.583Z" fill="#FAFAFA"/>
<path d="M1051.46 584.053H1036.88V598.627H1051.46V584.053Z" fill="#FAFAFA"/>
<path d="M1079.7 584.053H1065.13V598.627H1079.7V584.053Z" fill="#FAFAFA"/>
<path d="M1107.93 584.053H1093.35V598.627H1107.93V584.053Z" fill="#FAFAFA"/>
<path d="M1079.7 508.188H1065.13V522.762H1079.7V508.188Z" fill="#FAFAFA"/>
<path d="M1107.93 508.188H1093.35V522.762H1107.93V508.188Z" fill="#FAFAFA"/>
<path d="M1136.17 584.053H1121.6V598.627H1136.17V584.053Z" fill="#FAFAFA"/>
<path d="M1051.46 610.541H1036.88V625.115H1051.46V610.541Z" fill="#FAFAFA"/>
<path d="M1079.7 610.541H1065.13V625.115H1079.7V610.541Z" fill="#FAFAFA"/>
<path d="M1107.93 610.541H1093.35V625.115H1107.93V610.541Z" fill="#FAFAFA"/>
<path d="M1136.17 610.541H1121.6V625.115H1136.17V610.541Z" fill="#FAFAFA"/>
<path d="M1051.46 637.029H1036.88V651.603H1051.46V637.029Z" fill="#FAFAFA"/>
<path d="M1079.7 637.029H1065.13V651.603H1079.7V637.029Z" fill="#FAFAFA"/>
<path d="M1107.93 637.029H1093.35V651.603H1107.93V637.029Z" fill="#FAFAFA"/>
<path d="M1136.17 637.029H1121.6V651.603H1136.17V637.029Z" fill="#FAFAFA"/>
<path d="M1051.46 663.517H1036.88V678.091H1051.46V663.517Z" fill="#FAFAFA"/>
<path d="M1079.7 663.517H1065.13V678.091H1079.7V663.517Z" fill="#FAFAFA"/>
<path d="M1107.93 663.517H1093.35V678.091H1107.93V663.517Z" fill="#FAFAFA"/>
<path d="M1136.17 663.517H1121.6V678.091H1136.17V663.517Z" fill="#FAFAFA"/>
<path d="M1051.46 690.005H1036.88V704.579H1051.46V690.005Z" fill="#FAFAFA"/>
<path d="M1079.7 690.005H1065.13V704.579H1079.7V690.005Z" fill="#FAFAFA"/>
<path d="M1107.93 690.005H1093.35V704.579H1107.93V690.005Z" fill="#FAFAFA"/>
<path d="M1136.17 690.005H1121.6V704.579H1136.17V690.005Z" fill="#FAFAFA"/>
<path d="M1027.24 523.95H1145.8V520.971H1027.24V523.95Z" fill="#F5F5F5"/>
<path d="M1032.77 486.647H897.423V738.407H1032.77V486.647Z" fill="#E6E6E6"/>
<path d="M923.414 453.936V486.647H934.087H996.106H1006.78V453.936H923.414Z" fill="#E6E6E6"/>
<path d="M894.621 486.824H1035.55V483.296H894.621V486.824Z" fill="#F5F5F5"/>
<path d="M919.886 453.936H1010.32V450.408H919.886V453.936Z" fill="#F5F5F5"/>
<path d="M1004.54 486.647H869.197V738.407H1004.54V486.647Z" fill="#F0F0F0"/>
<path d="M895.189 453.936V486.647H905.862H967.88H978.553V453.936H895.189Z" fill="#F0F0F0"/>
<path d="M895.189 495.299H877.867V512.621H895.189V495.299Z" fill="white"/>
<path d="M928.751 495.299H911.429V512.621H928.751V495.299Z" fill="white"/>
<path d="M962.313 495.299H944.991V512.621H962.313V495.299Z" fill="white"/>
<path d="M995.875 495.299H978.553V512.621H995.875V495.299Z" fill="white"/>
<path d="M895.189 526.787H877.867V544.109H895.189V526.787Z" fill="white"/>
<path d="M928.751 526.787H911.429V544.109H928.751V526.787Z" fill="white"/>
<path d="M962.313 526.787H944.991V544.109H962.313V526.787Z" fill="white"/>
<path d="M995.875 526.787H978.553V544.109H995.875V526.787Z" fill="white"/>
<path d="M895.189 558.275H877.867V575.596H895.189V558.275Z" fill="white"/>
<path d="M928.751 558.275H911.429V575.596H928.751V558.275Z" fill="white"/>
<path d="M962.313 558.275H944.991V575.596H962.313V558.275Z" fill="white"/>
<path d="M928.751 468.084H911.429V485.406H928.751V468.084Z" fill="white"/>
<path d="M962.313 468.084H944.991V485.406H962.313V468.084Z" fill="white"/>
<path d="M995.875 558.275H978.553V575.596H995.875V558.275Z" fill="white"/>
<path d="M895.189 589.762H877.867V607.084H895.189V589.762Z" fill="white"/>
<path d="M928.751 589.762H911.429V607.084H928.751V589.762Z" fill="white"/>
<path d="M962.313 589.762H944.991V607.084H962.313V589.762Z" fill="white"/>
<path d="M995.875 589.762H978.553V607.084H995.875V589.762Z" fill="white"/>
<path d="M895.189 621.25H877.867V638.572H895.189V621.25Z" fill="white"/>
<path d="M928.751 621.25H911.429V638.572H928.751V621.25Z" fill="white"/>
<path d="M962.313 621.25H944.991V638.572H962.313V621.25Z" fill="white"/>
<path d="M995.875 621.25H978.553V638.572H995.875V621.25Z" fill="white"/>
<path d="M895.189 652.72H877.867V670.042H895.189V652.72Z" fill="white"/>
<path d="M928.751 652.72H911.429V670.042H928.751V652.72Z" fill="white"/>
<path d="M962.313 652.72H944.991V670.042H962.313V652.72Z" fill="white"/>
<path d="M995.875 652.72H978.553V670.042H995.875V652.72Z" fill="white"/>
<path d="M895.189 684.208H877.867V701.53H895.189V684.208Z" fill="white"/>
<path d="M928.751 684.208H911.429V701.53H928.751V684.208Z" fill="white"/>
<path d="M962.313 684.208H944.991V701.53H962.313V684.208Z" fill="white"/>
<path d="M995.875 684.208H978.553V701.53H995.875V684.208Z" fill="white"/>
<path d="M866.414 486.824H1007.35V483.296H866.414V486.824Z" fill="#F5F5F5"/>
<path d="M891.661 453.936H982.099V450.408H891.661V453.936Z" fill="#F5F5F5"/>
<path d="M801.08 600.684H725.321V737.397H846.22V600.684V547.903L801.08 600.684Z" fill="#F5F5F5"/>
<path d="M868.789 547.903H846.22V737.397H868.789V547.903Z" fill="#E6E6E6"/>
<path d="M748.955 624.796H730.959V642.791H748.955V624.796Z" fill="#E0E0E0"/>
<path opacity="0.3" d="M748.955 624.796H732.963V642.791H748.955V624.796Z" fill="white"/>
<path d="M748.955 655.078H730.959V673.074H748.955V655.078Z" fill="#E0E0E0"/>
<path opacity="0.3" d="M748.955 655.078H732.963V673.074H748.955V655.078Z" fill="white"/>
<path d="M748.955 685.342H730.959V703.338H748.955V685.342Z" fill="#E0E0E0"/>
<path opacity="0.3" d="M748.955 685.342H732.963V703.338H748.955V685.342Z" fill="white"/>
<path opacity="0.2" d="M750.958 685.342H732.963V703.338H750.958V685.342Z" fill="white"/>
<path d="M779.29 624.796H761.295V642.791H779.29V624.796Z" fill="#E0E0E0"/>
<path opacity="0.3" d="M779.29 624.796H763.298V642.791H779.29V624.796Z" fill="white"/>
<path d="M779.29 655.078H761.295V673.074H779.29V655.078Z" fill="#E0E0E0"/>
<path opacity="0.3" d="M779.29 655.078H763.298V673.074H779.29V655.078Z" fill="white"/>
<path d="M779.29 685.342H761.295V703.338H779.29V685.342Z" fill="#E0E0E0"/>
<path opacity="0.3" d="M779.29 685.342H763.298V703.338H779.29V685.342Z" fill="white"/>
<path opacity="0.2" d="M781.294 685.342H763.298V703.338H781.294V685.342Z" fill="white"/>
<path d="M809.626 624.796H791.63V642.791H809.626V624.796Z" fill="#E0E0E0"/>
<path opacity="0.3" d="M809.626 624.796H793.634V642.791H809.626V624.796Z" fill="white"/>
<path d="M809.626 655.078H791.63V673.074H809.626V655.078Z" fill="#E0E0E0"/>
<path opacity="0.3" d="M809.626 655.078H793.634V673.074H809.626V655.078Z" fill="white"/>
<path d="M809.626 685.342H791.63V703.338H809.626V685.342Z" fill="#E0E0E0"/>
<path opacity="0.3" d="M809.626 685.342H793.634V703.338H809.626V685.342Z" fill="white"/>
<path opacity="0.2" d="M811.629 685.342H793.634V703.338H811.629V685.342Z" fill="white"/>
<path d="M839.943 624.796H821.948V642.791H839.943V624.796Z" fill="#E0E0E0"/>
<path opacity="0.3" d="M839.943 624.796H823.951V642.791H839.943V624.796Z" fill="white"/>
<path d="M839.943 655.078H821.948V673.074H839.943V655.078Z" fill="#E0E0E0"/>
<path opacity="0.3" d="M839.943 655.078H823.951V673.074H839.943V655.078Z" fill="white"/>
<path d="M839.943 685.342H821.948V703.338H839.943V685.342Z" fill="#E0E0E0"/>
<path opacity="0.3" d="M839.943 685.342H823.951V703.338H839.943V685.342Z" fill="white"/>
<path opacity="0.2" d="M841.964 685.342H823.969V703.338H841.964V685.342Z" fill="white"/>
<path d="M1240.69 304.83L1287.9 304.298C1289.57 304.276 1291.22 304.745 1292.63 305.645C1307.56 319.829 1324.76 311.638 1332.4 306.674C1335.31 304.77 1338.69 303.726 1342.17 303.66L1394.77 303.057C1414.52 302.826 1418.97 275.133 1400.25 268.874L1399.54 268.555C1419.97 251.145 1374.3 215.366 1325.72 266.162C1329.37 249.389 1285.74 255.932 1272.63 278.909C1267.71 264.052 1226.34 290.575 1240.69 304.83Z" fill="#F0F0F0"/>
<path d="M970.876 374.631H1049.28C1059.31 374.631 1061.69 360.572 1052.26 357.274L1051.88 357.15C1062.38 348.409 1039.37 329.97 1014.35 355.501C1016.3 346.991 994.067 350.058 987.276 361.671C984.865 354.047 963.66 367.291 970.876 374.631Z" fill="#F0F0F0"/>
<path d="M751.402 307.294H884.586C901.642 307.294 905.756 283.413 889.639 277.792L889.019 277.597C906.855 262.74 867.743 231.5 825.192 274.778C828.508 260.329 790.744 265.559 779.202 285.274C775.159 272.332 739.151 294.813 751.402 307.294Z" fill="#F0F0F0"/>
<path d="M1118.19 577.795H1005.27V751.314H1118.19V577.795Z" fill="#449522"/>
<path opacity="0.6" d="M1099.13 577.777H1005.27V751.314H1099.13V577.777Z" fill="white"/>
<path opacity="0.3" d="M1118.21 577.777H1099.13V751.314H1118.21V577.777Z" fill="white"/>
<path d="M1033.82 586.606H1013.34V607.084H1033.82V586.606Z" fill="#449522"/>
<path d="M1062.43 586.606H1041.95V607.084H1062.43V586.606Z" fill="#449522"/>
<path d="M1091.07 586.606H1070.59V607.084H1091.07V586.606Z" fill="#449522"/>
<path d="M1033.82 613.289H1013.34V633.767H1033.82V613.289Z" fill="#449522"/>
<path d="M1062.43 613.289H1041.95V633.767H1062.43V613.289Z" fill="#449522"/>
<path d="M1091.07 613.289H1070.59V633.767H1091.07V613.289Z" fill="#449522"/>
<path d="M1033.82 639.972H1013.34V660.45H1033.82V639.972Z" fill="#449522"/>
<path d="M1062.43 639.972H1041.95V660.45H1062.43V639.972Z" fill="#449522"/>
<path d="M1091.07 639.972H1070.59V660.45H1091.07V639.972Z" fill="#449522"/>
<path d="M1033.82 666.656H1013.34V687.133H1033.82V666.656Z" fill="#449522"/>
<path d="M1062.43 666.656H1041.95V687.133H1062.43V666.656Z" fill="#449522"/>
<path d="M1091.07 666.656H1070.59V687.133H1091.07V666.656Z" fill="#449522"/>
<path d="M1033.82 693.339H1013.34V713.816H1033.82V693.339Z" fill="#449522"/>
<path d="M1062.43 693.339H1041.95V713.816H1062.43V693.339Z" fill="#449522"/>
<path d="M1091.07 693.339H1070.59V713.816H1091.07V693.339Z" fill="#449522"/>
<path d="M1033.82 727.114H1013.34V751.314H1033.82V727.114Z" fill="#449522"/>
<path d="M1062.43 720.022H1041.95V751.314H1062.43V720.022Z" fill="#449522"/>
<path d="M1091.07 727.114H1070.59V751.314H1091.07V727.114Z" fill="#449522"/>
<path opacity="0.4" d="M1033.82 586.606H1015.02V607.084H1033.82V586.606Z" fill="white"/>
<path opacity="0.4" d="M1062.45 586.606H1043.66V607.084H1062.45V586.606Z" fill="white"/>
<path opacity="0.4" d="M1091.08 586.606H1072.29V607.084H1091.08V586.606Z" fill="white"/>
<path opacity="0.4" d="M1033.82 613.289H1015.02V633.767H1033.82V613.289Z" fill="white"/>
<path opacity="0.4" d="M1062.45 613.289H1043.66V633.767H1062.45V613.289Z" fill="white"/>
<path opacity="0.4" d="M1091.08 613.289H1072.29V633.767H1091.08V613.289Z" fill="white"/>
<path opacity="0.4" d="M1033.82 639.972H1015.02V660.45H1033.82V639.972Z" fill="white"/>
<path opacity="0.4" d="M1062.45 639.972H1043.66V660.45H1062.45V639.972Z" fill="white"/>
<path opacity="0.4" d="M1091.08 639.972H1072.29V660.45H1091.08V639.972Z" fill="white"/>
<path opacity="0.4" d="M1033.82 666.656H1015.02V687.133H1033.82V666.656Z" fill="white"/>
<path opacity="0.4" d="M1062.45 666.656H1043.66V687.133H1062.45V666.656Z" fill="white"/>
<path opacity="0.4" d="M1091.08 666.656H1072.29V687.133H1091.08V666.656Z" fill="white"/>
<path opacity="0.4" d="M1033.82 693.339H1015.02V713.816H1033.82V693.339Z" fill="white"/>
<path opacity="0.4" d="M1062.45 693.339H1043.66V713.816H1062.45V693.339Z" fill="white"/>
<path opacity="0.4" d="M1091.08 693.339H1072.29V713.816H1091.08V693.339Z" fill="white"/>
<path opacity="0.4" d="M1033.82 727.114H1015.02V751.314H1033.82V727.114Z" fill="white"/>
<path opacity="0.4" d="M1062.45 720.022H1043.66V751.314H1062.45V720.022Z" fill="white"/>
<path opacity="0.4" d="M1091.08 727.114H1072.29V751.314H1091.08V727.114Z" fill="white"/>
<path d="M998.41 570.277H1137.55L1133.42 579.089H1002.56L998.41 570.277Z" fill="#449522"/>
<path opacity="0.2" d="M1101.19 570.277H1137.55L1133.42 579.089H1099.2L1101.19 570.277Z" fill="black"/>
<path d="M1413.41 473.988H1299.44V751.314H1413.41V473.988Z" fill="#449522"/>
<path opacity="0.4" d="M1386.14 473.988H1299.44V751.314H1386.14V473.988Z" fill="white"/>
<path d="M1418.74 465.779H1294.09V474.626H1418.74V465.779Z" fill="#449522"/>
<path opacity="0.2" d="M1418.74 465.779H1386.16V474.626H1418.74V465.779Z" fill="black"/>
<path opacity="0.3" d="M1413.42 474.626H1386.16V751.314H1413.42V474.626Z" fill="white"/>
<path d="M1325.81 485.051H1311.07V507.373H1325.81V485.051Z" fill="#449522"/>
<path opacity="0.2" d="M1325.81 486.523H1311.07V507.355H1325.81V486.523Z" fill="white"/>
<path d="M1313.18 485.051H1311.07V507.373H1313.18V485.051Z" fill="#449522"/>
<path d="M1349.01 485.051H1334.28V507.373H1349.01V485.051Z" fill="#449522"/>
<path opacity="0.2" d="M1349.01 486.523H1334.28V507.355H1349.01V486.523Z" fill="white"/>
<path d="M1336.39 485.051H1334.28V507.373H1336.39V485.051Z" fill="#449522"/>
<path d="M1372.22 485.051H1357.49V507.373H1372.22V485.051Z" fill="#449522"/>
<path opacity="0.2" d="M1372.22 486.523H1357.49V507.355H1372.22V486.523Z" fill="white"/>
<path d="M1359.6 485.051H1357.49V507.373H1359.6V485.051Z" fill="#449522"/>
<path d="M1325.81 518.667H1311.07V540.988H1325.81V518.667Z" fill="#449522"/>
<path opacity="0.2" d="M1325.81 520.138H1311.07V540.97H1325.81V520.138Z" fill="white"/>
<path d="M1313.18 518.667H1311.07V540.988H1313.18V518.667Z" fill="#449522"/>
<path d="M1349.01 518.667H1334.28V540.988H1349.01V518.667Z" fill="#449522"/>
<path opacity="0.2" d="M1349.01 520.138H1334.28V540.97H1349.01V520.138Z" fill="white"/>
<path d="M1336.39 518.667H1334.28V540.988H1336.39V518.667Z" fill="#449522"/>
<path d="M1372.22 518.667H1357.49V540.988H1372.22V518.667Z" fill="#449522"/>
<path opacity="0.2" d="M1372.22 520.138H1357.49V540.97H1372.22V520.138Z" fill="white"/>
<path d="M1359.6 518.667H1357.49V540.988H1359.6V518.667Z" fill="#449522"/>
<path d="M1325.81 552.264H1311.07V574.586H1325.81V552.264Z" fill="#449522"/>
<path opacity="0.2" d="M1325.81 553.753H1311.07V574.586H1325.81V553.753Z" fill="white"/>
<path d="M1313.18 552.264H1311.07V574.586H1313.18V552.264Z" fill="#449522"/>
<path d="M1349.01 552.264H1334.28V574.586H1349.01V552.264Z" fill="#449522"/>
<path opacity="0.2" d="M1349.01 553.753H1334.28V574.586H1349.01V553.753Z" fill="white"/>
<path d="M1336.39 552.264H1334.28V574.586H1336.39V552.264Z" fill="#449522"/>
<path d="M1372.22 552.264H1357.49V574.586H1372.22V552.264Z" fill="#449522"/>
<path opacity="0.2" d="M1372.22 553.753H1357.49V574.586H1372.22V553.753Z" fill="white"/>
<path d="M1359.6 552.264H1357.49V574.586H1359.6V552.264Z" fill="#449522"/>
<path d="M1325.81 585.879H1311.07V608.201H1325.81V585.879Z" fill="#449522"/>
<path opacity="0.2" d="M1325.81 587.369H1311.07V608.201H1325.81V587.369Z" fill="white"/>
<path d="M1313.18 585.879H1311.07V608.201H1313.18V585.879Z" fill="#449522"/>
<path d="M1349.01 585.879H1334.28V608.201H1349.01V585.879Z" fill="#449522"/>
<path opacity="0.2" d="M1349.01 587.369H1334.28V608.201H1349.01V587.369Z" fill="white"/>
<path d="M1336.39 585.879H1334.28V608.201H1336.39V585.879Z" fill="#449522"/>
<path d="M1372.22 585.879H1357.49V608.201H1372.22V585.879Z" fill="#449522"/>
<path opacity="0.2" d="M1372.22 587.369H1357.49V608.201H1372.22V587.369Z" fill="white"/>
<path d="M1359.6 585.879H1357.49V608.201H1359.6V585.879Z" fill="#449522"/>
<path d="M1325.81 619.495H1311.07V641.816H1325.81V619.495Z" fill="#449522"/>
<path opacity="0.2" d="M1325.81 620.966H1311.07V641.799H1325.81V620.966Z" fill="white"/>
<path d="M1313.18 619.495H1311.07V641.816H1313.18V619.495Z" fill="#449522"/>
<path d="M1349.01 619.495H1334.28V641.816H1349.01V619.495Z" fill="#449522"/>
<path opacity="0.2" d="M1349.01 620.966H1334.28V641.799H1349.01V620.966Z" fill="white"/>
<path d="M1336.39 619.495H1334.28V641.816H1336.39V619.495Z" fill="#449522"/>
<path d="M1372.22 619.495H1357.49V641.816H1372.22V619.495Z" fill="#449522"/>
<path opacity="0.2" d="M1372.22 620.966H1357.49V641.799H1372.22V620.966Z" fill="white"/>
<path d="M1359.6 619.495H1357.49V641.816H1359.6V619.495Z" fill="#449522"/>
<path d="M1325.81 653.092H1311.07V675.414H1325.81V653.092Z" fill="#449522"/>
<path opacity="0.2" d="M1325.81 654.582H1311.07V675.414H1325.81V654.582Z" fill="white"/>
<path d="M1313.18 653.092H1311.07V675.414H1313.18V653.092Z" fill="#449522"/>
<path d="M1349.01 653.092H1334.28V675.414H1349.01V653.092Z" fill="#449522"/>
<path opacity="0.2" d="M1349.01 654.582H1334.28V675.414H1349.01V654.582Z" fill="white"/>
<path d="M1336.39 653.092H1334.28V675.414H1336.39V653.092Z" fill="#449522"/>
<path d="M1372.22 653.092H1357.49V675.414H1372.22V653.092Z" fill="#449522"/>
<path opacity="0.2" d="M1372.22 654.582H1357.49V675.414H1372.22V654.582Z" fill="white"/>
<path d="M1359.6 653.092H1357.49V675.414H1359.6V653.092Z" fill="#449522"/>
<path d="M1325.81 686.708H1311.07V709.029H1325.81V686.708Z" fill="#449522"/>
<path opacity="0.2" d="M1325.81 688.197H1311.07V709.029H1325.81V688.197Z" fill="white"/>
<path d="M1313.18 686.708H1311.07V709.029H1313.18V686.708Z" fill="#449522"/>
<path d="M1349.01 686.708H1334.28V709.029H1349.01V686.708Z" fill="#449522"/>
<path opacity="0.2" d="M1349.01 688.197H1334.28V709.029H1349.01V688.197Z" fill="white"/>
<path d="M1336.39 686.708H1334.28V709.029H1336.39V686.708Z" fill="#449522"/>
<path d="M1372.22 686.708H1357.49V709.029H1372.22V686.708Z" fill="#449522"/>
<path opacity="0.2" d="M1372.22 688.197H1357.49V709.029H1372.22V688.197Z" fill="white"/>
<path d="M1359.6 686.708H1357.49V709.029H1359.6V686.708Z" fill="#449522"/>
<path d="M1325.81 720.323H1311.07V742.645H1325.81V720.323Z" fill="#449522"/>
<path opacity="0.2" d="M1325.81 721.795H1311.07V742.627H1325.81V721.795Z" fill="white"/>
<path d="M1313.18 720.323H1311.07V742.645H1313.18V720.323Z" fill="#449522"/>
<path d="M1349.01 720.323H1334.28V742.645H1349.01V720.323Z" fill="#449522"/>
<path opacity="0.2" d="M1349.01 721.795H1334.28V742.627H1349.01V721.795Z" fill="white"/>
<path d="M1336.39 720.323H1334.28V742.645H1336.39V720.323Z" fill="#449522"/>
<path d="M1372.22 720.323H1357.49V742.645H1372.22V720.323Z" fill="#449522"/>
<path opacity="0.2" d="M1372.22 721.795H1357.49V742.627H1372.22V721.795Z" fill="white"/>
<path d="M1359.6 720.323H1357.49V742.645H1359.6V720.323Z" fill="#449522"/>
<path d="M1173.17 316.726H1170.64V371.334H1173.17V316.726Z" fill="#263238"/>
<path d="M1228.27 316.726H1225.74V371.334H1228.27V316.726Z" fill="#263238"/>
<path d="M1275.95 341.601H1190.3V386.865H1275.95V341.601Z" fill="#449522"/>
<path opacity="0.7" d="M1275.95 341.601H1190.3V386.865H1275.95V341.601Z" fill="white"/>
<path d="M1226.41 341.601H1140.76V386.865H1226.41V341.601Z" fill="#449522"/>
<path opacity="0.4" d="M1226.41 341.601H1140.76V386.865H1226.41V341.601Z" fill="white"/>
<path opacity="0.5" d="M1132.62 411.137H1128.33V428.866H1132.62V411.137Z" fill="white"/>
<path opacity="0.5" d="M1132.62 456.914H1128.33V474.644H1132.62V456.914Z" fill="white"/>
<path opacity="0.5" d="M1132.62 487.906H1128.33V505.635H1132.62V487.906Z" fill="white"/>
<path opacity="0.5" d="M1132.62 518.915H1128.33V536.644H1132.62V518.915Z" fill="white"/>
<path opacity="0.5" d="M1132.62 549.906H1128.33V567.636H1132.62V549.906Z" fill="white"/>
<path opacity="0.5" d="M1132.62 580.897H1128.33V598.627H1132.62V580.897Z" fill="white"/>
<path opacity="0.5" d="M1132.62 615.062H1128.33V632.792H1132.62V615.062Z" fill="white"/>
<path opacity="0.5" d="M1132.62 649.227H1128.33V666.957H1132.62V649.227Z" fill="white"/>
<path opacity="0.5" d="M1132.62 683.375H1128.33V701.104H1132.62V683.375Z" fill="white"/>
<path opacity="0.5" d="M1132.62 717.539H1128.33V735.269H1132.62V717.539Z" fill="white"/>
<path d="M1300.06 387.521H1166.22V751.314H1300.06V387.521Z" fill="#449522"/>
<path d="M1250.49 387.521H1116.65V751.314H1250.49V387.521Z" fill="#449522"/>
<path opacity="0.3" d="M1300.04 392.52H1250.51V751.332H1300.04V392.52Z" fill="white"/>
<path opacity="0.5" d="M1250.49 387.521H1116.65V751.314H1250.49V387.521Z" fill="white"/>
<path d="M1237.81 403.424H1221.4V742.627H1237.81V403.424Z" fill="#449522"/>
<path d="M1206.18 403.424H1189.77V742.627H1206.18V403.424Z" fill="#449522"/>
<path d="M1174.55 403.424H1158.14V742.627H1174.55V403.424Z" fill="#449522"/>
<path d="M1142.91 403.424H1126.49V742.627H1142.91V403.424Z" fill="#449522"/>
<path opacity="0.2" d="M1237.81 407.715H1221.4V742.627H1237.81V407.715Z" fill="white"/>
<path opacity="0.2" d="M1206.18 407.715H1189.77V742.627H1206.18V407.715Z" fill="white"/>
<path opacity="0.2" d="M1174.55 407.715H1158.14V742.627H1174.55V407.715Z" fill="white"/>
<path opacity="0.2" d="M1142.91 407.715H1126.49V742.627H1142.91V407.715Z" fill="white"/>
<path d="M1294.34 403.424H1287.46V742.627H1294.34V403.424Z" fill="#449522"/>
<path d="M1281.07 403.424H1274.19V742.627H1281.07V403.424Z" fill="#449522"/>
<path d="M1267.79 403.424H1260.92V742.627H1267.79V403.424Z" fill="#449522"/>
<g opacity="0.3">
<path opacity="0.4" d="M1294.34 407.715H1287.46V742.627H1294.34V407.715Z" fill="white"/>
<path opacity="0.4" d="M1281.07 407.715H1274.19V742.627H1281.07V407.715Z" fill="white"/>
<path opacity="0.4" d="M1267.79 407.715H1260.92V742.627H1267.79V407.715Z" fill="white"/>
</g>
<path d="M1297.19 377.184H1250.51V384.01H1297.19V377.184Z" fill="#449522"/>
<path d="M1297.19 375.518H1116.65V384.01H1297.19V375.518Z" fill="#F0F0F0"/>
<path d="M1303.52 384.028H1112.87V392.52H1303.52V384.028Z" fill="#449522"/>
<path d="M1303.52 368.692H1112.87V377.184H1303.52V368.692Z" fill="#449522"/>
<path opacity="0.1" d="M1303.52 384.028H1112.87V392.52H1303.52V384.028Z" fill="black"/>
<path opacity="0.1" d="M1303.52 368.692H1112.87V377.184H1303.52V368.692Z" fill="black"/>
<path opacity="0.2" d="M1303.52 384.028H1250.51V392.52H1303.52V384.028Z" fill="black"/>
<path opacity="0.2" d="M1303.52 368.692H1250.51V377.184H1303.52V368.692Z" fill="black"/>
<path opacity="0.3" d="M1193.86 341.601H1173.4V362.061H1193.86V341.601Z" fill="white"/>
<path d="M966.941 505.635C949.566 485.14 927.794 478.137 911.819 485.778C909.522 486.878 906.927 487.194 904.432 486.679C901.938 486.163 899.681 484.844 898.008 482.924C878.683 461.985 847.354 459.503 834.359 479.254C832.888 481.49 831.641 483.865 830.635 486.346C829.04 490.338 826.386 493.82 822.958 496.416C820.63 498.144 818.631 500.276 817.054 502.71C812.837 509.702 810.88 517.826 811.452 525.971C811.549 527.187 811.297 528.405 810.726 529.483C810.154 530.56 809.287 531.452 808.225 532.052C804.607 533.947 801.55 536.76 799.36 540.208C788.829 556.165 793.474 584.709 809.732 603.875C824.217 620.949 843.028 624.867 854.393 614.194C854.855 613.749 855.472 613.501 856.113 613.501C856.754 613.501 857.37 613.749 857.833 614.194C866.024 621.551 875.562 621.605 880.473 613.626C880.662 613.278 880.93 612.98 881.255 612.755C881.58 612.53 881.954 612.385 882.346 612.331C882.738 612.278 883.137 612.317 883.511 612.447C883.885 612.576 884.223 612.792 884.498 613.077C892.937 621.534 903.132 621.941 908.326 613.626C909.262 612.078 909.978 610.407 910.454 608.662C910.526 608.291 910.678 607.941 910.898 607.634C911.119 607.327 911.403 607.072 911.731 606.885C912.059 606.698 912.424 606.584 912.8 606.551C913.177 606.518 913.556 606.567 913.911 606.694C919.425 608.91 924.833 607.953 928.52 603.591C928.887 603.138 929.404 602.833 929.978 602.732C930.551 602.631 931.142 602.741 931.641 603.042C950.558 614.353 970.504 612.172 981.603 595.312C996.443 572.742 989.989 532.62 966.941 505.635Z" fill="#449522"/>
<path opacity="0.6" d="M966.941 505.635C949.566 485.14 927.794 478.137 911.819 485.778C909.522 486.878 906.927 487.194 904.432 486.679C901.938 486.163 899.681 484.844 898.008 482.924C878.683 461.985 847.354 459.503 834.359 479.254C832.888 481.49 831.641 483.865 830.635 486.346C829.04 490.338 826.386 493.82 822.958 496.416C820.63 498.144 818.631 500.276 817.054 502.71C812.837 509.702 810.88 517.826 811.452 525.971C811.549 527.187 811.297 528.405 810.726 529.483C810.154 530.56 809.287 531.452 808.225 532.052C804.607 533.947 801.55 536.76 799.36 540.208C788.829 556.165 793.474 584.709 809.732 603.875C824.217 620.949 843.028 624.867 854.393 614.194C854.855 613.749 855.472 613.501 856.113 613.501C856.754 613.501 857.37 613.749 857.833 614.194C866.024 621.551 875.562 621.605 880.473 613.626C880.662 613.278 880.93 612.98 881.255 612.755C881.58 612.53 881.954 612.385 882.346 612.331C882.738 612.278 883.137 612.317 883.511 612.447C883.885 612.576 884.223 612.792 884.498 613.077C892.937 621.534 903.132 621.941 908.326 613.626C909.262 612.078 909.978 610.407 910.454 608.662C910.526 608.291 910.678 607.941 910.898 607.634C911.119 607.327 911.403 607.072 911.731 606.885C912.059 606.698 912.424 606.584 912.8 606.551C913.177 606.518 913.556 606.567 913.911 606.694C919.425 608.91 924.833 607.953 928.52 603.591C928.887 603.138 929.404 602.833 929.978 602.732C930.551 602.631 931.142 602.741 931.641 603.042C950.558 614.353 970.504 612.172 981.603 595.312C996.443 572.742 989.989 532.62 966.941 505.635Z" fill="white"/>
<path d="M851.29 623.537L867.761 639.653C866.449 662.4 865.368 714.791 865.368 714.791L859.517 751.421L911.128 751.917C911.128 751.917 908.787 720.979 908.787 719.312C908.787 717.646 898.806 658.376 898.806 658.376L895.26 625.186L921.854 616.623L926.712 601.836L946.215 590.17L955.771 574.692L952.083 573.752L941.445 588.042L929.123 590.861L934.442 577.706H928.574L913.911 608.201L895.011 612.279L897.476 569.462C882.37 576.908 877.53 564.498 877.53 564.498C877.53 564.498 871.289 622.136 869.091 628.696L859.357 623.537L848.72 605.949H844.252L851.29 623.537Z" fill="#449522"/>
<path d="M775.762 695.058H773.156V728.567H775.762V695.058Z" fill="#449522"/>
<path opacity="0.2" d="M775.762 695.058H773.156V728.567H775.762V695.058Z" fill="black"/>
<path d="M829.784 695.058H827.178V728.567H829.784V695.058Z" fill="#449522"/>
<path opacity="0.2" d="M829.784 695.058H827.178V728.567H829.784V695.058Z" fill="black"/>
<path d="M832.745 725.305H770.301V729.383H832.745V725.305Z" fill="#449522"/>
<path opacity="0.2" d="M832.745 725.305H770.301V729.383H832.745V725.305Z" fill="white"/>
<path d="M774.45 729.259H771.844V751.935H774.45V729.259Z" fill="#449522"/>
<path opacity="0.2" d="M774.45 729.259H771.844V751.935H774.45V729.259Z" fill="black"/>
<path d="M831.451 729.259H828.845V751.935H831.451V729.259Z" fill="#449522"/>
<path opacity="0.2" d="M831.451 729.259H828.845V751.935H831.451V729.259Z" fill="black"/>
<path d="M832.745 696.565H770.301V716.281H832.745V696.565Z" fill="#449522"/>
<path opacity="0.2" d="M832.745 696.565H770.301V716.281H832.745V696.565Z" fill="white"/>
<path d="M832.621 728.567H770.39V734.914H832.621V728.567Z" fill="#449522"/>
<path opacity="0.1" d="M832.621 728.567H770.39V734.914H832.621V728.567Z" fill="black"/>
<path d="M770.39 719.543H767.784V751.899H770.39V719.543Z" fill="#449522"/>
<path d="M771.401 716.298H766.862V720.837H771.401V716.298Z" fill="#449522"/>
<path opacity="0.2" d="M771.401 716.298H766.862V720.837H771.401V716.298Z" fill="white"/>
<path d="M774.929 716.298H771.383V720.837H774.929V716.298Z" fill="#449522"/>
<path d="M832.639 751.899H835.245V719.543H832.639V751.899Z" fill="#449522"/>
<path d="M831.646 720.819H836.167V716.281H831.646V720.819Z" fill="#449522"/>
<path opacity="0.2" d="M831.646 720.819H836.167V716.281H831.646V720.819Z" fill="white"/>
<path d="M831.628 716.298H828.082V720.837H831.628V716.298Z" fill="#449522"/>
<path opacity="0.1" d="M774.929 716.298H771.383V720.837H774.929V716.298Z" fill="black"/>
<path opacity="0.1" d="M831.628 716.298H828.082V720.837H831.628V716.298Z" fill="black"/>
<path d="M770.284 468.811H767.997V478.81H770.284V468.811Z" fill="#263238"/>
<path d="M785.779 464.644C771.596 466.417 750.143 471.169 733.317 480.016V483.367C749.607 474.61 767.477 469.186 785.886 467.41L785.779 464.644Z" fill="#449522"/>
<path d="M810.406 469.626C809.496 468.841 808.474 468.196 807.374 467.712C804.945 466.666 790.247 468.864 785.212 469.662V467.517L785.088 464.733C788.51 464.378 791.577 464.13 794.166 463.971C798.403 463.74 801.541 463.598 803.864 463.527C804.696 463.489 805.527 463.618 806.309 463.905C807.091 464.193 807.808 464.634 808.417 465.202C809.026 465.77 809.516 466.454 809.858 467.214C810.199 467.973 810.385 468.794 810.406 469.626Z" fill="#449522"/>
<path d="M733.317 503.596C732.847 503.596 732.396 503.41 732.064 503.077C731.731 502.745 731.544 502.294 731.544 501.823C731.544 500.919 731.544 499.04 740.977 490.512C742.304 489.288 743.714 488.156 745.196 487.126C753.871 481.587 763.605 477.916 773.776 476.346C774.247 476.285 774.722 476.413 775.098 476.702C775.473 476.992 775.719 477.418 775.78 477.888C775.841 478.359 775.713 478.834 775.424 479.21C775.134 479.585 774.708 479.831 774.237 479.892C774.096 479.892 759.008 482.019 747.2 490.086C745.845 491.028 744.559 492.065 743.352 493.189C737.218 498.738 735.268 501.345 735.073 502.054C735.017 502.48 734.808 502.871 734.485 503.155C734.162 503.439 733.747 503.596 733.317 503.596Z" fill="#263238"/>
<path d="M730.959 479.537H734.505C734.618 479.537 734.726 479.582 734.806 479.662C734.886 479.742 734.931 479.85 734.931 479.963V752.059H730.498V479.927C730.503 479.871 730.518 479.817 730.544 479.767C730.57 479.717 730.605 479.673 730.648 479.636C730.691 479.6 730.74 479.573 730.794 479.556C730.847 479.539 730.904 479.532 730.959 479.537Z" fill="#263238"/>
<path d="M810.424 469.821V469.963L789.839 471.896L785.265 469.963V469.662C790.3 468.864 804.998 466.666 807.427 467.712C808.509 468.2 809.512 468.845 810.406 469.626C810.421 469.69 810.427 469.756 810.424 469.821Z" fill="#449522"/>
<path opacity="0.6" d="M810.424 469.821V469.963L789.839 471.896L785.265 469.963V469.662C790.3 468.864 804.998 466.666 807.427 467.712C808.509 468.2 809.512 468.845 810.406 469.626C810.421 469.69 810.427 469.756 810.424 469.821Z" fill="white"/>
<path d="M1335.61 596.163H1340.2C1340.35 596.163 1340.49 596.221 1340.59 596.324C1340.69 596.427 1340.75 596.567 1340.75 596.712V765.835H1335.06V596.712C1335.06 596.567 1335.12 596.427 1335.22 596.324C1335.32 596.221 1335.46 596.163 1335.61 596.163Z" fill="#263238"/>
<path d="M1364.97 600.755H1310.63C1307.16 600.755 1304.35 603.565 1304.35 607.031V617.154C1304.35 620.621 1307.16 623.431 1310.63 623.431H1364.97C1368.44 623.431 1371.25 620.621 1371.25 617.154V607.031C1371.25 603.565 1368.44 600.755 1364.97 600.755Z" fill="#449522"/>
<path opacity="0.9" d="M1364.97 600.755H1310.63C1307.16 600.755 1304.35 603.565 1304.35 607.031V617.154C1304.35 620.621 1307.16 623.431 1310.63 623.431H1364.97C1368.44 623.431 1371.25 620.621 1371.25 617.154V607.031C1371.25 603.565 1368.44 600.755 1364.97 600.755Z" fill="white"/>
<path d="M1363.27 602.439H1312.65C1309.18 602.439 1306.37 605.249 1306.37 608.715V615.169C1306.37 618.635 1309.18 621.445 1312.65 621.445H1363.27C1366.73 621.445 1369.54 618.635 1369.54 615.169V608.715C1369.54 605.249 1366.73 602.439 1363.27 602.439Z" fill="#449522"/>
<path d="M1355.75 613.999L1356.07 613.307C1356.53 613.648 1357.09 613.834 1357.67 613.839C1358.41 613.839 1358.73 613.555 1358.73 613.201C1358.73 612.173 1355.86 612.846 1355.86 611.056C1355.86 610.275 1356.48 609.619 1357.81 609.619C1358.37 609.606 1358.93 609.753 1359.42 610.045L1359.14 610.736C1358.73 610.503 1358.27 610.375 1357.81 610.364C1357.06 610.364 1356.76 610.648 1356.76 611.02C1356.76 612.031 1359.62 611.375 1359.62 613.148C1359.62 613.91 1359 614.584 1357.67 614.584C1356.98 614.607 1356.31 614.401 1355.75 613.999Z" fill="white"/>
<path d="M1361.42 610.435H1359.83V609.673H1363.92V610.435H1362.31V614.513H1361.41L1361.42 610.435Z" fill="white"/>
<path d="M1444.81 750.286H699.879V769.008H1444.81V750.286Z" fill="#449522"/>
<g opacity="0.7">
<path d="M1444.81 750.286H699.879V769.008H1444.81V750.286Z" fill="white"/>
</g>
<path d="M740.055 750.286H738.282V770.338H740.055V750.286Z" fill="white"/>
<path d="M906.678 750.286H904.905V770.338H906.678V750.286Z" fill="white"/>
<path d="M1073.3 750.286H1071.53V770.338H1073.3V750.286Z" fill="white"/>
<path d="M1239.92 750.286H1238.15V770.338H1239.92V750.286Z" fill="white"/>
<path d="M1406.55 750.286H1404.77V770.338H1406.55V750.286Z" fill="white"/>
</g>
<g opacity="0.25">
<path d="M264.024 523.808H377.883V738.407H264.024V523.808Z" fill="#EBEBEB"/>
<path d="M356.022 496.292V523.808H347.034H294.873H285.884V496.292H356.022Z" fill="#EBEBEB"/>
<path d="M356.023 531.095H370.596V545.669H356.023V531.095Z" fill="#FAFAFA"/>
<path d="M327.779 531.095H342.353V545.669H327.779V531.095Z" fill="#FAFAFA"/>
<path d="M299.554 531.095H314.127V545.669H299.554V531.095Z" fill="#FAFAFA"/>
<path d="M271.311 531.095H285.884V545.669H271.311V531.095Z" fill="#FAFAFA"/>
<path d="M356.023 557.583H370.596V572.157H356.023V557.583Z" fill="#FAFAFA"/>
<path d="M327.779 557.583H342.353V572.157H327.779V557.583Z" fill="#FAFAFA"/>
<path d="M299.554 557.583H314.127V572.157H299.554V557.583Z" fill="#FAFAFA"/>
<path d="M271.311 557.583H285.884V572.157H271.311V557.583Z" fill="#FAFAFA"/>
<path d="M356.023 584.053H370.596V598.627H356.023V584.053Z" fill="#FAFAFA"/>
<path d="M327.779 584.053H342.353V598.627H327.779V584.053Z" fill="#FAFAFA"/>
<path d="M299.554 584.053H314.127V598.627H299.554V584.053Z" fill="#FAFAFA"/>
<path d="M327.779 508.188H342.353V522.762H327.779V508.188Z" fill="#FAFAFA"/>
<path d="M299.554 508.188H314.127V522.762H299.554V508.188Z" fill="#FAFAFA"/>
<path d="M271.311 584.053H285.884V598.627H271.311V584.053Z" fill="#FAFAFA"/>
<path d="M356.023 610.541H370.596V625.115H356.023V610.541Z" fill="#FAFAFA"/>
<path d="M327.779 610.541H342.353V625.115H327.779V610.541Z" fill="#FAFAFA"/>
<path d="M299.554 610.541H314.127V625.115H299.554V610.541Z" fill="#FAFAFA"/>
<path d="M271.311 610.541H285.884V625.115H271.311V610.541Z" fill="#FAFAFA"/>
<path d="M356.023 637.029H370.596V651.603H356.023V637.029Z" fill="#FAFAFA"/>
<path d="M327.779 637.029H342.353V651.603H327.779V637.029Z" fill="#FAFAFA"/>
<path d="M299.554 637.029H314.127V651.603H299.554V637.029Z" fill="#FAFAFA"/>
<path d="M271.311 637.029H285.884V651.603H271.311V637.029Z" fill="#FAFAFA"/>
<path d="M356.023 663.517H370.596V678.091H356.023V663.517Z" fill="#FAFAFA"/>
<path d="M327.779 663.517H342.353V678.091H327.779V663.517Z" fill="#FAFAFA"/>
<path d="M299.554 663.517H314.127V678.091H299.554V663.517Z" fill="#FAFAFA"/>
<path d="M271.311 663.517H285.884V678.091H271.311V663.517Z" fill="#FAFAFA"/>
<path d="M356.023 690.005H370.596V704.579H356.023V690.005Z" fill="#FAFAFA"/>
<path d="M327.779 690.005H342.353V704.579H327.779V690.005Z" fill="#FAFAFA"/>
<path d="M299.554 690.005H314.127V704.579H299.554V690.005Z" fill="#FAFAFA"/>
<path d="M271.311 690.005H285.884V704.579H271.311V690.005Z" fill="#FAFAFA"/>
<path d="M380.241 523.95H261.683V520.971H380.241V523.95Z" fill="#F5F5F5"/>
<path d="M374.709 486.647H510.057V738.407H374.709V486.647Z" fill="#E6E6E6"/>
<path d="M484.066 453.936V486.647H473.393H411.374H400.701V453.936H484.066Z" fill="#E6E6E6"/>
<path d="M512.859 486.824H371.926V483.296H512.859V486.824Z" fill="#F5F5F5"/>
<path d="M487.594 453.936H397.155V450.408H487.594V453.936Z" fill="#F5F5F5"/>
<path d="M402.935 486.647H538.283V738.407H402.935V486.647Z" fill="#F0F0F0"/>
<path d="M512.291 453.936V486.647H501.618H439.6H428.927V453.936H512.291Z" fill="#F0F0F0"/>
<path d="M512.291 495.299H529.613V512.621H512.291V495.299Z" fill="white"/>
<path d="M478.729 495.299H496.051V512.621H478.729V495.299Z" fill="white"/>
<path d="M445.167 495.299H462.489V512.621H445.167V495.299Z" fill="white"/>
<path d="M411.605 495.299H428.927V512.621H411.605V495.299Z" fill="white"/>
<path d="M512.291 526.787H529.613V544.109H512.291V526.787Z" fill="white"/>
<path d="M478.729 526.787H496.051V544.109H478.729V526.787Z" fill="white"/>
<path d="M445.167 526.787H462.489V544.109H445.167V526.787Z" fill="white"/>
<path d="M411.605 526.787H428.927V544.109H411.605V526.787Z" fill="white"/>
<path d="M512.291 558.275H529.613V575.596H512.291V558.275Z" fill="white"/>
<path d="M478.729 558.275H496.051V575.596H478.729V558.275Z" fill="white"/>
<path d="M445.167 558.275H462.489V575.596H445.167V558.275Z" fill="white"/>
<path d="M478.729 468.084H496.051V485.406H478.729V468.084Z" fill="white"/>
<path d="M445.167 468.084H462.489V485.406H445.167V468.084Z" fill="white"/>
<path d="M411.605 558.275H428.927V575.596H411.605V558.275Z" fill="white"/>
<path d="M512.291 589.762H529.613V607.084H512.291V589.762Z" fill="white"/>
<path d="M478.729 589.762H496.051V607.084H478.729V589.762Z" fill="white"/>
<path d="M445.167 589.762H462.489V607.084H445.167V589.762Z" fill="white"/>
<path d="M411.605 589.762H428.927V607.084H411.605V589.762Z" fill="white"/>
<path d="M512.291 621.25H529.613V638.572H512.291V621.25Z" fill="white"/>
<path d="M478.729 621.25H496.051V638.572H478.729V621.25Z" fill="white"/>
<path d="M445.167 621.25H462.489V638.572H445.167V621.25Z" fill="white"/>
<path d="M411.605 621.25H428.927V638.572H411.605V621.25Z" fill="white"/>
<path d="M512.291 652.72H529.613V670.042H512.291V652.72Z" fill="white"/>
<path d="M478.729 652.72H496.051V670.042H478.729V652.72Z" fill="white"/>
<path d="M445.167 652.72H462.489V670.042H445.167V652.72Z" fill="white"/>
<path d="M411.605 652.72H428.927V670.042H411.605V652.72Z" fill="white"/>
<path d="M512.291 684.208H529.613V701.53H512.291V684.208Z" fill="white"/>
<path d="M478.729 684.208H496.051V701.53H478.729V684.208Z" fill="white"/>
<path d="M445.167 684.208H462.489V701.53H445.167V684.208Z" fill="white"/>
<path d="M411.605 684.208H428.927V701.53H411.605V684.208Z" fill="white"/>
<path d="M541.066 486.824H400.134V483.296H541.066V486.824Z" fill="#F5F5F5"/>
<path d="M515.819 453.936H425.381V450.408H515.819V453.936Z" fill="#F5F5F5"/>
<path d="M606.4 600.684H682.159V737.397H561.26V600.684V547.903L606.4 600.684Z" fill="#F5F5F5"/>
<path d="M538.691 547.903H561.26V737.397H538.691V547.903Z" fill="#E6E6E6"/>
<path d="M658.525 624.796H676.521V642.791H658.525V624.796Z" fill="#E0E0E0"/>
<path opacity="0.3" d="M658.525 624.796H674.517V642.791H658.525V624.796Z" fill="white"/>
<path d="M658.525 655.078H676.521V673.074H658.525V655.078Z" fill="#E0E0E0"/>
<path opacity="0.3" d="M658.525 655.078H674.517V673.074H658.525V655.078Z" fill="white"/>
<path d="M658.525 685.342H676.521V703.338H658.525V685.342Z" fill="#E0E0E0"/>
<path opacity="0.3" d="M658.525 685.342H674.517V703.338H658.525V685.342Z" fill="white"/>
<path opacity="0.2" d="M656.521 685.342H674.517V703.338H656.521V685.342Z" fill="white"/>
<path d="M628.19 624.796H646.185V642.791H628.19V624.796Z" fill="#E0E0E0"/>
<path opacity="0.3" d="M628.19 624.796H644.182V642.791H628.19V624.796Z" fill="white"/>
<path d="M628.19 655.078H646.185V673.074H628.19V655.078Z" fill="#E0E0E0"/>
<path opacity="0.3" d="M628.19 655.078H644.182V673.074H628.19V655.078Z" fill="white"/>
<path d="M628.19 685.342H646.185V703.338H628.19V685.342Z" fill="#E0E0E0"/>
<path opacity="0.3" d="M628.19 685.342H644.182V703.338H628.19V685.342Z" fill="white"/>
<path opacity="0.2" d="M626.186 685.342H644.182V703.338H626.186V685.342Z" fill="white"/>
<path d="M597.854 624.796H615.85V642.791H597.854V624.796Z" fill="#E0E0E0"/>
<path opacity="0.3" d="M597.854 624.796H613.846V642.791H597.854V624.796Z" fill="white"/>
<path d="M597.854 655.078H615.85V673.074H597.854V655.078Z" fill="#E0E0E0"/>
<path opacity="0.3" d="M597.854 655.078H613.846V673.074H597.854V655.078Z" fill="white"/>
<path d="M597.854 685.342H615.85V703.338H597.854V685.342Z" fill="#E0E0E0"/>
<path opacity="0.3" d="M597.854 685.342H613.846V703.338H597.854V685.342Z" fill="white"/>
<path opacity="0.2" d="M595.851 685.342H613.846V703.338H595.851V685.342Z" fill="white"/>
<path d="M567.537 624.796H585.532V642.791H567.537V624.796Z" fill="#E0E0E0"/>
<path opacity="0.3" d="M567.537 624.796H583.529V642.791H567.537V624.796Z" fill="white"/>
<path d="M567.537 655.078H585.532V673.074H567.537V655.078Z" fill="#E0E0E0"/>
<path opacity="0.3" d="M567.537 655.078H583.529V673.074H567.537V655.078Z" fill="white"/>
<path d="M567.537 685.342H585.532V703.338H567.537V685.342Z" fill="#E0E0E0"/>
<path opacity="0.3" d="M567.537 685.342H583.529V703.338H567.537V685.342Z" fill="white"/>
<path opacity="0.2" d="M565.516 685.342H583.511V703.338H565.516V685.342Z" fill="white"/>
<path d="M166.794 304.83L119.581 304.298C117.905 304.276 116.26 304.745 114.847 305.645C99.9184 319.829 82.7207 311.638 75.0792 306.674C72.1712 304.77 68.7852 303.726 65.3102 303.66L12.7065 303.057C-7.04428 302.826 -11.4944 275.133 7.22806 268.874L7.93723 268.555C-12.4873 251.145 33.1842 215.366 81.7633 266.162C78.111 249.389 121.744 255.932 134.846 278.909C139.775 264.052 181.138 290.575 166.794 304.83Z" fill="#F0F0F0"/>
<path d="M436.604 374.631H358.203C348.168 374.631 345.793 360.572 355.225 357.274L355.597 357.15C345.101 348.409 368.114 329.97 393.131 355.501C391.18 346.991 413.413 350.058 420.204 361.671C422.615 354.047 443.82 367.291 436.604 374.631Z" fill="#F0F0F0"/>
<path d="M656.078 307.294H522.894C505.838 307.294 501.724 283.413 517.841 277.792L518.461 277.597C500.625 262.74 539.737 231.5 582.288 274.778C578.972 260.329 616.736 265.559 628.278 285.274C632.321 272.332 668.329 294.813 656.078 307.294Z" fill="#F0F0F0"/>
<path d="M556.552 577.795H669.472V751.314H556.552V577.795Z" fill="#449522"/>
<path opacity="0.6" d="M575.611 577.777H669.472V751.314H575.611V577.777Z" fill="white"/>
<path opacity="0.3" d="M556.534 577.777H575.611V751.314H556.534V577.777Z" fill="white"/>
<path d="M640.927 586.606H661.405V607.084H640.927V586.606Z" fill="#449522"/>
<path d="M612.312 586.606H632.789V607.084H612.312V586.606Z" fill="#449522"/>
<path d="M583.678 586.606H604.156V607.084H583.678V586.606Z" fill="#449522"/>
<path d="M640.927 613.289H661.405V633.767H640.927V613.289Z" fill="#449522"/>
<path d="M612.312 613.289H632.789V633.767H612.312V613.289Z" fill="#449522"/>
<path d="M583.678 613.289H604.156V633.767H583.678V613.289Z" fill="#449522"/>
<path d="M640.927 639.972H661.405V660.45H640.927V639.972Z" fill="#449522"/>
<path d="M612.312 639.972H632.789V660.45H612.312V639.972Z" fill="#449522"/>
<path d="M583.678 639.972H604.156V660.45H583.678V639.972Z" fill="#449522"/>
<path d="M640.927 666.656H661.405V687.133H640.927V666.656Z" fill="#449522"/>
<path d="M612.312 666.656H632.789V687.133H612.312V666.656Z" fill="#449522"/>
<path d="M583.678 666.656H604.156V687.133H583.678V666.656Z" fill="#449522"/>
<path d="M640.927 693.339H661.405V713.816H640.927V693.339Z" fill="#449522"/>
<path d="M612.312 693.339H632.789V713.816H612.312V693.339Z" fill="#449522"/>
<path d="M583.678 693.339H604.156V713.816H583.678V693.339Z" fill="#449522"/>
<path d="M640.927 727.114H661.405V751.314H640.927V727.114Z" fill="#449522"/>
<path d="M612.312 720.022H632.789V751.314H612.312V720.022Z" fill="#449522"/>
<path d="M583.678 727.114H604.156V751.314H583.678V727.114Z" fill="#449522"/>
<path opacity="0.4" d="M640.927 586.606H659.721V607.084H640.927V586.606Z" fill="white"/>
<path opacity="0.4" d="M612.294 586.606H631.087V607.084H612.294V586.606Z" fill="white"/>
<path opacity="0.4" d="M583.661 586.606H602.454V607.084H583.661V586.606Z" fill="white"/>
<path opacity="0.4" d="M640.927 613.289H659.721V633.767H640.927V613.289Z" fill="white"/>
<path opacity="0.4" d="M612.294 613.289H631.087V633.767H612.294V613.289Z" fill="white"/>
<path opacity="0.4" d="M583.661 613.289H602.454V633.767H583.661V613.289Z" fill="white"/>
<path opacity="0.4" d="M640.927 639.972H659.721V660.45H640.927V639.972Z" fill="white"/>
<path opacity="0.4" d="M612.294 639.972H631.087V660.45H612.294V639.972Z" fill="white"/>
<path opacity="0.4" d="M583.661 639.972H602.454V660.45H583.661V639.972Z" fill="white"/>
<path opacity="0.4" d="M640.927 666.656H659.721V687.133H640.927V666.656Z" fill="white"/>
<path opacity="0.4" d="M612.294 666.656H631.087V687.133H612.294V666.656Z" fill="white"/>
<path opacity="0.4" d="M583.661 666.656H602.454V687.133H583.661V666.656Z" fill="white"/>
<path opacity="0.4" d="M640.927 693.339H659.721V713.816H640.927V693.339Z" fill="white"/>
<path opacity="0.4" d="M612.294 693.339H631.087V713.816H612.294V693.339Z" fill="white"/>
<path opacity="0.4" d="M583.661 693.339H602.454V713.816H583.661V693.339Z" fill="white"/>
<path opacity="0.4" d="M640.927 727.114H659.721V751.314H640.927V727.114Z" fill="white"/>
<path opacity="0.4" d="M612.294 720.022H631.087V751.314H612.294V720.022Z" fill="white"/>
<path opacity="0.4" d="M583.661 727.114H602.454V751.314H583.661V727.114Z" fill="white"/>
<path d="M676.333 570.277H537.191L541.322 579.089H672.185L676.333 570.277Z" fill="#449522"/>
<path opacity="0.2" d="M573.555 570.277H537.191L541.322 579.089H575.541L573.555 570.277Z" fill="black"/>
<path d="M261.337 473.988H375.302V751.314H261.337V473.988Z" fill="#449522"/>
<path opacity="0.4" d="M288.605 473.988H375.302V751.314H288.605V473.988Z" fill="white"/>
<path d="M256 465.779H380.657V474.626H256V465.779Z" fill="#449522"/>
<path opacity="0.2" d="M256 465.779H288.587V474.626H256V465.779Z" fill="black"/>
<path opacity="0.3" d="M261.319 474.626H288.587V751.314H261.319V474.626Z" fill="white"/>
<path d="M348.939 485.051H363.672V507.373H348.939V485.051Z" fill="#449522"/>
<path opacity="0.2" d="M348.939 486.523H363.672V507.355H348.939V486.523Z" fill="white"/>
<path d="M361.562 485.051H363.672V507.373H361.562V485.051Z" fill="#449522"/>
<path d="M325.731 485.051H340.464V507.373H325.731V485.051Z" fill="#449522"/>
<path opacity="0.2" d="M325.731 486.523H340.464V507.355H325.731V486.523Z" fill="white"/>
<path d="M338.354 485.051H340.464V507.373H338.354V485.051Z" fill="#449522"/>
<path d="M302.522 485.051H317.256V507.373H302.522V485.051Z" fill="#449522"/>
<path opacity="0.2" d="M302.522 486.523H317.256V507.355H302.522V486.523Z" fill="white"/>
<path d="M315.146 485.051H317.256V507.373H315.146V485.051Z" fill="#449522"/>
<path d="M348.939 518.667H363.672V540.988H348.939V518.667Z" fill="#449522"/>
<path opacity="0.2" d="M348.939 520.138H363.672V540.97H348.939V520.138Z" fill="white"/>
<path d="M361.562 518.667H363.672V540.988H361.562V518.667Z" fill="#449522"/>
<path d="M325.731 518.667H340.464V540.988H325.731V518.667Z" fill="#449522"/>
<path opacity="0.2" d="M325.731 520.138H340.464V540.97H325.731V520.138Z" fill="white"/>
<path d="M338.354 518.667H340.464V540.988H338.354V518.667Z" fill="#449522"/>
<path d="M302.522 518.667H317.256V540.988H302.522V518.667Z" fill="#449522"/>
<path opacity="0.2" d="M302.522 520.138H317.256V540.97H302.522V520.138Z" fill="white"/>
<path d="M315.146 518.667H317.256V540.988H315.146V518.667Z" fill="#449522"/>
<path d="M348.939 552.264H363.672V574.586H348.939V552.264Z" fill="#449522"/>
<path opacity="0.2" d="M348.939 553.753H363.672V574.586H348.939V553.753Z" fill="white"/>
<path d="M361.562 552.264H363.672V574.586H361.562V552.264Z" fill="#449522"/>
<path d="M325.731 552.264H340.464V574.586H325.731V552.264Z" fill="#449522"/>
<path opacity="0.2" d="M325.731 553.753H340.464V574.586H325.731V553.753Z" fill="white"/>
<path d="M338.354 552.264H340.464V574.586H338.354V552.264Z" fill="#449522"/>
<path d="M302.522 552.264H317.256V574.586H302.522V552.264Z" fill="#449522"/>
<path opacity="0.2" d="M302.522 553.753H317.256V574.586H302.522V553.753Z" fill="white"/>
<path d="M315.146 552.264H317.256V574.586H315.146V552.264Z" fill="#449522"/>
<path d="M348.939 585.879H363.672V608.201H348.939V585.879Z" fill="#449522"/>
<path opacity="0.2" d="M348.939 587.369H363.672V608.201H348.939V587.369Z" fill="white"/>
<path d="M361.562 585.879H363.672V608.201H361.562V585.879Z" fill="#449522"/>
<path d="M325.731 585.879H340.464V608.201H325.731V585.879Z" fill="#449522"/>
<path opacity="0.2" d="M325.731 587.369H340.464V608.201H325.731V587.369Z" fill="white"/>
<path d="M338.354 585.879H340.464V608.201H338.354V585.879Z" fill="#449522"/>
<path d="M302.522 585.879H317.256V608.201H302.522V585.879Z" fill="#449522"/>
<path opacity="0.2" d="M302.522 587.369H317.256V608.201H302.522V587.369Z" fill="white"/>
<path d="M315.146 585.879H317.256V608.201H315.146V585.879Z" fill="#449522"/>
<path d="M348.939 619.495H363.672V641.816H348.939V619.495Z" fill="#449522"/>
<path opacity="0.2" d="M348.939 620.966H363.672V641.799H348.939V620.966Z" fill="white"/>
<path d="M361.562 619.495H363.672V641.816H361.562V619.495Z" fill="#449522"/>
<path d="M325.731 619.495H340.464V641.816H325.731V619.495Z" fill="#449522"/>
<path opacity="0.2" d="M325.731 620.966H340.464V641.799H325.731V620.966Z" fill="white"/>
<path d="M338.354 619.495H340.464V641.816H338.354V619.495Z" fill="#449522"/>
<path d="M302.522 619.495H317.256V641.816H302.522V619.495Z" fill="#449522"/>
<path opacity="0.2" d="M302.522 620.966H317.256V641.799H302.522V620.966Z" fill="white"/>
<path d="M315.146 619.495H317.256V641.816H315.146V619.495Z" fill="#449522"/>
<path d="M348.939 653.092H363.672V675.414H348.939V653.092Z" fill="#449522"/>
<path opacity="0.2" d="M348.939 654.582H363.672V675.414H348.939V654.582Z" fill="white"/>
<path d="M361.562 653.092H363.672V675.414H361.562V653.092Z" fill="#449522"/>
<path d="M325.731 653.092H340.464V675.414H325.731V653.092Z" fill="#449522"/>
<path opacity="0.2" d="M325.731 654.582H340.464V675.414H325.731V654.582Z" fill="white"/>
<path d="M338.354 653.092H340.464V675.414H338.354V653.092Z" fill="#449522"/>
<path d="M302.522 653.092H317.256V675.414H302.522V653.092Z" fill="#449522"/>
<path opacity="0.2" d="M302.522 654.582H317.256V675.414H302.522V654.582Z" fill="white"/>
<path d="M315.146 653.092H317.256V675.414H315.146V653.092Z" fill="#449522"/>
<path d="M348.939 686.708H363.672V709.029H348.939V686.708Z" fill="#449522"/>
<path opacity="0.2" d="M348.939 688.197H363.672V709.029H348.939V688.197Z" fill="white"/>
<path d="M361.562 686.708H363.672V709.029H361.562V686.708Z" fill="#449522"/>
<path d="M325.731 686.708H340.464V709.029H325.731V686.708Z" fill="#449522"/>
<path opacity="0.2" d="M325.731 688.197H340.464V709.029H325.731V688.197Z" fill="white"/>
<path d="M338.354 686.708H340.464V709.029H338.354V686.708Z" fill="#449522"/>
<path d="M302.522 686.708H317.256V709.029H302.522V686.708Z" fill="#449522"/>
<path opacity="0.2" d="M302.522 688.197H317.256V709.029H302.522V688.197Z" fill="white"/>
<path d="M315.146 686.708H317.256V709.029H315.146V686.708Z" fill="#449522"/>
<path d="M348.939 720.323H363.672V742.645H348.939V720.323Z" fill="#449522"/>
<path opacity="0.2" d="M348.939 721.795H363.672V742.627H348.939V721.795Z" fill="white"/>
<path d="M361.562 720.323H363.672V742.645H361.562V720.323Z" fill="#449522"/>
<path d="M325.731 720.323H340.464V742.645H325.731V720.323Z" fill="#449522"/>
<path opacity="0.2" d="M325.731 721.795H340.464V742.627H325.731V721.795Z" fill="white"/>
<path d="M338.354 720.323H340.464V742.645H338.354V720.323Z" fill="#449522"/>
<path d="M302.522 720.323H317.256V742.645H302.522V720.323Z" fill="#449522"/>
<path opacity="0.2" d="M302.522 721.795H317.256V742.627H302.522V721.795Z" fill="white"/>
<path d="M315.146 720.323H317.256V742.645H315.146V720.323Z" fill="#449522"/>
<path d="M501.573 316.726H504.108V371.334H501.573V316.726Z" fill="#263238"/>
<path d="M446.469 316.726H449.004V371.334H446.469V316.726Z" fill="#263238"/>
<path d="M398.794 341.601H484.446V386.865H398.794V341.601Z" fill="#449522"/>
<path opacity="0.7" d="M398.794 341.601H484.446V386.865H398.794V341.601Z" fill="white"/>
<path d="M448.331 341.601H533.982V386.865H448.331V341.601Z" fill="#449522"/>
<path opacity="0.4" d="M448.331 341.601H533.982V386.865H448.331V341.601Z" fill="white"/>
<path opacity="0.5" d="M542.12 411.137H546.411V428.866H542.12V411.137Z" fill="white"/>
<path opacity="0.5" d="M542.12 456.914H546.411V474.644H542.12V456.914Z" fill="white"/>
<path opacity="0.5" d="M542.12 487.906H546.411V505.635H542.12V487.906Z" fill="white"/>
<path opacity="0.5" d="M542.12 518.915H546.411V536.644H542.12V518.915Z" fill="white"/>
<path opacity="0.5" d="M542.12 549.906H546.411V567.636H542.12V549.906Z" fill="white"/>
<path opacity="0.5" d="M542.12 580.897H546.411V598.627H542.12V580.897Z" fill="white"/>
<path opacity="0.5" d="M542.12 615.062H546.411V632.792H542.12V615.062Z" fill="white"/>
<path opacity="0.5" d="M542.12 649.227H546.411V666.957H542.12V649.227Z" fill="white"/>
<path opacity="0.5" d="M542.12 683.375H546.411V701.104H542.12V683.375Z" fill="white"/>
<path opacity="0.5" d="M542.12 717.539H546.411V735.269H542.12V717.539Z" fill="white"/>
<path d="M374.682 387.521H508.523V751.314H374.682V387.521Z" fill="#449522"/>
<path d="M424.254 387.521H558.095V751.314H424.254V387.521Z" fill="#449522"/>
<path opacity="0.3" d="M374.7 392.52H424.236V751.332H374.7V392.52Z" fill="white"/>
<path opacity="0.5" d="M424.254 387.521H558.095V751.314H424.254V387.521Z" fill="white"/>
<path d="M436.93 403.424H453.348V742.627H436.93V403.424Z" fill="#449522"/>
<path d="M468.56 403.424H484.978V742.627H468.56V403.424Z" fill="#449522"/>
<path d="M500.19 403.424H516.607V742.627H500.19V403.424Z" fill="#449522"/>
<path d="M531.837 403.424H548.255V742.627H531.837V403.424Z" fill="#449522"/>
<path opacity="0.2" d="M436.93 407.715H453.348V742.627H436.93V407.715Z" fill="white"/>
<path opacity="0.2" d="M468.56 407.715H484.978V742.627H468.56V407.715Z" fill="white"/>
<path opacity="0.2" d="M500.19 407.715H516.607V742.627H500.19V407.715Z" fill="white"/>
<path opacity="0.2" d="M531.837 407.715H548.255V742.627H531.837V407.715Z" fill="white"/>
<path d="M380.409 403.424H387.288V742.627H380.409V403.424Z" fill="#449522"/>
<path d="M393.67 403.424H400.549V742.627H393.67V403.424Z" fill="#449522"/>
<path d="M406.95 403.424H413.829V742.627H406.95V403.424Z" fill="#449522"/>
<g opacity="0.3">
<path opacity="0.4" d="M380.408 407.715H387.288V742.627H380.408V407.715Z" fill="white"/>
<path opacity="0.4" d="M393.67 407.715H400.549V742.627H393.67V407.715Z" fill="white"/>
<path opacity="0.4" d="M406.95 407.715H413.829V742.627H406.95V407.715Z" fill="white"/>
</g>
<path d="M377.554 377.184H424.236V384.01H377.554V377.184Z" fill="#449522"/>
<path d="M377.554 375.518H558.095V384.01H377.554V375.518Z" fill="#F0F0F0"/>
<path d="M371.225 384.028H561.871V392.52H371.225V384.028Z" fill="#449522"/>
<path d="M371.225 368.692H561.871V377.184H371.225V368.692Z" fill="#449522"/>
<path opacity="0.1" d="M371.225 384.028H561.871V392.52H371.225V384.028Z" fill="black"/>
<path opacity="0.1" d="M371.225 368.692H561.871V377.184H371.225V368.692Z" fill="black"/>
<path opacity="0.2" d="M371.225 384.028H424.236V392.52H371.225V384.028Z" fill="black"/>
<path opacity="0.2" d="M371.225 368.692H424.236V377.184H371.225V368.692Z" fill="black"/>
<path opacity="0.3" d="M480.882 341.601H501.342V362.061H480.882V341.601Z" fill="white"/>
<path d="M89.6301 505.635C107.005 485.14 128.777 478.137 144.751 485.778C147.049 486.878 149.644 487.194 152.138 486.679C154.633 486.163 156.889 484.844 158.563 482.924C177.888 461.985 209.216 459.503 222.212 479.254C223.683 481.49 224.93 483.865 225.935 486.345C227.531 490.338 230.185 493.82 233.612 496.416C235.94 498.144 237.94 500.276 239.516 502.71C243.734 509.702 245.69 517.826 245.119 525.971C245.021 527.187 245.273 528.405 245.845 529.483C246.417 530.56 247.284 531.452 248.345 532.052C251.964 533.947 255.021 536.76 257.21 540.208C267.742 556.165 263.097 584.709 246.838 603.875C232.353 620.949 213.542 624.867 202.178 614.194C201.715 613.749 201.099 613.501 200.458 613.501C199.817 613.501 199.2 613.749 198.738 614.194C190.547 621.551 181.008 621.605 176.097 613.626C175.909 613.278 175.641 612.98 175.316 612.755C174.99 612.53 174.616 612.385 174.224 612.331C173.832 612.278 173.433 612.317 173.059 612.447C172.686 612.576 172.348 612.792 172.073 613.077C163.633 621.534 153.439 621.941 148.244 613.626C147.308 612.078 146.592 610.407 146.117 608.662C146.044 608.291 145.893 607.941 145.672 607.634C145.452 607.327 145.168 607.072 144.839 606.885C144.511 606.698 144.146 606.584 143.77 606.551C143.394 606.518 143.015 606.567 142.659 606.694C137.145 608.91 131.738 607.953 128.05 603.591C127.684 603.138 127.166 602.833 126.593 602.732C126.019 602.631 125.429 602.741 124.93 603.042C106.012 614.353 86.0665 612.172 74.9677 595.312C60.1281 572.742 66.5816 532.62 89.6301 505.635Z" fill="#449522"/>
<path opacity="0.6" d="M89.6301 505.635C107.005 485.14 128.777 478.137 144.751 485.778C147.049 486.878 149.644 487.194 152.138 486.679C154.633 486.163 156.889 484.844 158.563 482.924C177.888 461.985 209.216 459.503 222.212 479.254C223.683 481.49 224.93 483.865 225.935 486.345C227.531 490.338 230.185 493.82 233.612 496.416C235.94 498.144 237.94 500.276 239.516 502.71C243.734 509.702 245.69 517.826 245.119 525.971C245.021 527.187 245.273 528.405 245.845 529.483C246.417 530.56 247.284 531.452 248.345 532.052C251.964 533.947 255.021 536.76 257.21 540.208C267.742 556.165 263.097 584.709 246.838 603.875C232.353 620.949 213.542 624.867 202.178 614.194C201.715 613.749 201.099 613.501 200.458 613.501C199.817 613.501 199.2 613.749 198.738 614.194C190.547 621.551 181.008 621.605 176.097 613.626C175.909 613.278 175.641 612.98 175.316 612.755C174.99 612.53 174.616 612.385 174.224 612.331C173.832 612.278 173.433 612.317 173.059 612.447C172.686 612.576 172.348 612.792 172.073 613.077C163.633 621.534 153.439 621.941 148.244 613.626C147.308 612.078 146.592 610.407 146.117 608.662C146.044 608.291 145.893 607.941 145.672 607.634C145.452 607.327 145.168 607.072 144.839 606.885C144.511 606.698 144.146 606.584 143.77 606.551C143.394 606.518 143.015 606.567 142.659 606.694C137.145 608.91 131.738 607.953 128.05 603.591C127.684 603.138 127.166 602.833 126.593 602.732C126.019 602.631 125.429 602.741 124.93 603.042C106.012 614.353 86.0665 612.172 74.9677 595.312C60.1281 572.742 66.5816 532.62 89.6301 505.635Z" fill="white"/>
<path d="M205.28 623.537L188.81 639.653C190.121 662.4 191.203 714.791 191.203 714.791L197.054 751.421L145.443 751.917C145.443 751.917 147.783 720.979 147.783 719.312C147.783 717.646 157.765 658.376 157.765 658.376L161.311 625.186L134.716 616.623L129.859 601.836L110.356 590.17L100.8 574.692L104.488 573.752L115.125 588.042L127.447 590.861L122.128 577.706H127.997L142.659 608.201L161.559 612.279L159.095 569.462C174.2 576.908 179.04 564.498 179.04 564.498C179.04 564.498 185.281 622.136 187.48 628.696L197.213 623.537L207.851 605.949H212.319L205.28 623.537Z" fill="#449522"/>
<path d="M280.808 695.058H283.415V728.567H280.808V695.058Z" fill="#449522"/>
<path opacity="0.2" d="M280.808 695.058H283.415V728.567H280.808V695.058Z" fill="black"/>
<path d="M226.786 695.058H229.393V728.567H226.786V695.058Z" fill="#449522"/>
<path opacity="0.2" d="M226.786 695.058H229.393V728.567H226.786V695.058Z" fill="black"/>
<path d="M223.826 725.305H286.269V729.383H223.826V725.305Z" fill="#449522"/>
<path opacity="0.2" d="M223.826 725.305H286.269V729.383H223.826V725.305Z" fill="white"/>
<path d="M282.121 729.259H284.727V751.935H282.121V729.259Z" fill="#449522"/>
<path opacity="0.2" d="M282.121 729.259H284.727V751.935H282.121V729.259Z" fill="black"/>
<path d="M225.12 729.259H227.726V751.935H225.12V729.259Z" fill="#449522"/>
<path opacity="0.2" d="M225.12 729.259H227.726V751.935H225.12V729.259Z" fill="black"/>
<path d="M223.826 696.565H286.269V716.281H223.826V696.565Z" fill="#449522"/>
<path opacity="0.2" d="M223.826 696.565H286.269V716.281H223.826V696.565Z" fill="white"/>
<path d="M223.95 728.567H286.181V734.914H223.95V728.567Z" fill="#449522"/>
<path opacity="0.1" d="M223.95 728.567H286.181V734.914H223.95V728.567Z" fill="black"/>
<path d="M286.18 719.543H288.787V751.899H286.18V719.543Z" fill="#449522"/>
<path d="M285.17 716.298H289.709V720.837H285.17V716.298Z" fill="#449522"/>
<path opacity="0.2" d="M285.17 716.298H289.709V720.837H285.17V716.298Z" fill="white"/>
<path d="M281.642 716.298H285.188V720.837H281.642V716.298Z" fill="#449522"/>
<path d="M223.932 751.899H221.326V719.543H223.932V751.899Z" fill="#449522"/>
<path d="M224.925 720.819H220.404V716.281H224.925V720.819Z" fill="#449522"/>
<path opacity="0.2" d="M224.925 720.819H220.404V716.281H224.925V720.819Z" fill="white"/>
<path d="M224.942 716.298H228.488V720.837H224.942V716.298Z" fill="#449522"/>
<path opacity="0.1" d="M281.642 716.298H285.188V720.837H281.642V716.298Z" fill="black"/>
<path opacity="0.1" d="M224.942 716.298H228.488V720.837H224.942V716.298Z" fill="black"/>
<path d="M317.141 468.811H319.428V478.81H317.141V468.811Z" fill="#263238"/>
<path d="M301.645 464.644C315.829 466.417 337.282 471.169 354.107 480.016V483.367C337.818 474.61 319.947 469.186 301.539 467.41L301.645 464.644Z" fill="#449522"/>
<path d="M277.019 469.626C277.929 468.841 278.95 468.196 280.051 467.712C282.48 466.666 297.177 468.864 302.213 469.662V467.517L302.337 464.733C298.915 464.379 295.848 464.13 293.259 463.971C289.022 463.74 285.884 463.598 283.561 463.527C282.729 463.489 281.897 463.618 281.116 463.905C280.334 464.193 279.617 464.634 279.008 465.202C278.399 465.77 277.909 466.454 277.567 467.214C277.226 467.973 277.039 468.794 277.019 469.626Z" fill="#449522"/>
<path d="M354.107 503.596C354.577 503.596 355.028 503.41 355.361 503.077C355.693 502.745 355.88 502.294 355.88 501.823C355.88 500.919 355.88 499.04 346.448 490.512C345.121 489.288 343.711 488.156 342.228 487.126C333.553 481.587 323.82 477.916 313.648 476.346C313.178 476.285 312.703 476.413 312.327 476.702C311.951 476.992 311.706 477.418 311.645 477.888C311.584 478.359 311.712 478.834 312.001 479.21C312.29 479.585 312.717 479.831 313.187 479.892C313.329 479.892 328.417 482.019 340.225 490.086C341.58 491.028 342.865 492.065 344.072 493.189C350.207 498.738 352.157 501.345 352.352 502.054C352.408 502.48 352.617 502.871 352.94 503.155C353.262 503.439 353.677 503.596 354.107 503.596Z" fill="#263238"/>
<path d="M356.465 479.537H352.919C352.806 479.537 352.698 479.582 352.618 479.662C352.539 479.742 352.494 479.85 352.494 479.963V752.059H356.926V479.927C356.922 479.871 356.906 479.817 356.881 479.767C356.855 479.717 356.82 479.673 356.777 479.636C356.734 479.6 356.684 479.573 356.631 479.556C356.577 479.539 356.521 479.532 356.465 479.537Z" fill="#263238"/>
<path d="M277.001 469.821V469.963L297.585 471.896L302.159 469.963V469.662C297.124 468.864 282.426 466.666 279.997 467.712C278.916 468.2 277.912 468.845 277.019 469.626C277.003 469.69 276.997 469.756 277.001 469.821Z" fill="#449522"/>
<path opacity="0.6" d="M277.001 469.821V469.963L297.585 471.896L302.159 469.963V469.662C297.124 468.864 282.426 466.666 279.997 467.712C278.916 468.2 277.912 468.845 277.019 469.626C277.003 469.69 276.997 469.756 277.001 469.821Z" fill="white"/>
<path d="M71.8701 596.163H67.2781C67.1324 596.163 66.9926 596.221 66.8895 596.324C66.7864 596.427 66.7285 596.567 66.7285 596.712V765.835H72.4197V596.712C72.4197 596.567 72.3618 596.427 72.2587 596.324C72.1557 596.221 72.0159 596.163 71.8701 596.163Z" fill="#263238"/>
<path d="M42.51 600.755H96.8512C100.317 600.755 103.127 603.565 103.127 607.031V617.154C103.127 620.621 100.317 623.431 96.8512 623.431H42.51C39.0437 623.431 36.2337 620.621 36.2337 617.154V607.031C36.2337 603.565 39.0437 600.755 42.51 600.755Z" fill="#449522"/>
<path opacity="0.9" d="M42.51 600.755H96.8512C100.317 600.755 103.127 603.565 103.127 607.031V617.154C103.127 620.621 100.317 623.431 96.8512 623.431H42.51C39.0437 623.431 36.2337 620.621 36.2337 617.154V607.031C36.2337 603.565 39.0437 600.755 42.51 600.755Z" fill="white"/>
<path d="M44.212 602.439H94.8301C98.2963 602.439 101.106 605.249 101.106 608.715V615.169C101.106 618.635 98.2963 621.445 94.8301 621.445H44.212C40.7457 621.445 37.9358 618.635 37.9358 615.169V608.715C37.9358 605.249 40.7457 602.439 44.212 602.439Z" fill="#449522"/>
<path d="M51.7294 613.999L51.4103 613.307C50.9476 613.648 50.3892 613.834 49.8146 613.839C49.07 613.839 48.7508 613.555 48.7508 613.201C48.7508 612.173 51.6231 612.846 51.6231 611.056C51.6231 610.275 51.0025 609.619 49.6728 609.619C49.1056 609.606 48.5461 609.753 48.0594 610.045L48.3431 610.736C48.7483 610.503 49.2054 610.375 49.6728 610.364C50.4174 610.364 50.7188 610.648 50.7188 611.02C50.7188 612.031 47.8643 611.375 47.8643 613.148C47.8643 613.91 48.4849 614.584 49.8146 614.584C50.5002 614.607 51.174 614.401 51.7294 613.999Z" fill="white"/>
<path d="M46.0559 610.435H47.6515V609.673H43.556V610.435H45.1694V614.513H46.0736L46.0559 610.435Z" fill="white"/>
<path d="M-37.3264 750.286H707.601V769.008H-37.3264V750.286Z" fill="#449522"/>
<g opacity="0.7">
<path d="M-37.3264 750.286H707.601V769.008H-37.3264V750.286Z" fill="white"/>
</g>
<path d="M667.425 750.286H669.198V770.338H667.425V750.286Z" fill="white"/>
<path d="M500.802 750.286H502.575V770.338H500.802V750.286Z" fill="white"/>
<path d="M334.18 750.286H335.953V770.338H334.18V750.286Z" fill="white"/>
<path d="M167.557 750.286H169.33V770.338H167.557V750.286Z" fill="white"/>
<path d="M0.934132 750.286H2.70709V770.338H0.934132V750.286Z" fill="white"/>
</g>
</g>
<defs>
<clipPath id="clip0_1150_6046">
<rect width="1440" height="768" fill="white"/>
</clipPath>
</defs>
</svg>
