<svg width="25" height="24" viewBox="0 0 25 24" fill="none" xmlns="http://www.w3.org/2000/svg">
<path d="M12.5 22.75C11.8 22.75 11.09 22.48 10.56 21.95L8.84998 20.26C8.42998 19.84 7.85001 19.61 7.26001 19.61H6.5C4.43 19.61 2.75 17.94 2.75 15.89V4.97998C2.75 2.92998 4.43 1.26001 6.5 1.26001H18.5C20.57 1.26001 22.25 2.92998 22.25 4.97998V15.89C22.25 17.94 20.57 19.61 18.5 19.61H17.74C17.15 19.61 16.57 19.85 16.15 20.26L14.44 21.95C13.91 22.48 13.2 22.75 12.5 22.75ZM6.5 2.75C5.26 2.75 4.25 3.74997 4.25 4.96997V15.88C4.25 17.11 5.26 18.1 6.5 18.1H7.26001C8.25001 18.1 9.20997 18.5 9.90997 19.19L11.62 20.88C12.11 21.36 12.9 21.36 13.39 20.88L15.1 19.19C15.8 18.5 16.76 18.1 17.75 18.1H18.5C19.74 18.1 20.75 17.1 20.75 15.88V4.96997C20.75 3.73997 19.74 2.75 18.5 2.75H6.5Z" fill="#42526E"/>
<path d="M12.4999 10.7501C10.7999 10.7501 9.41992 9.37004 9.41992 7.67004C9.41992 5.97004 10.7999 4.59009 12.4999 4.59009C14.1999 4.59009 15.58 5.97004 15.58 7.67004C15.58 9.37004 14.1999 10.7501 12.4999 10.7501ZM12.4999 6.09009C11.6299 6.09009 10.9199 6.80004 10.9199 7.67004C10.9199 8.54004 11.6299 9.25006 12.4999 9.25006C13.3699 9.25006 14.08 8.54004 14.08 7.67004C14.08 6.80004 13.3699 6.09009 12.4999 6.09009Z" fill="#42526E"/>
<path d="M16.5 16.4101C16.09 16.4101 15.75 16.0701 15.75 15.6601C15.75 14.2801 14.29 13.1501 12.5 13.1501C10.71 13.1501 9.25 14.2801 9.25 15.6601C9.25 16.0701 8.91 16.4101 8.5 16.4101C8.09 16.4101 7.75 16.0701 7.75 15.6601C7.75 13.4501 9.88 11.6501 12.5 11.6501C15.12 11.6501 17.25 13.4501 17.25 15.6601C17.25 16.0701 16.91 16.4101 16.5 16.4101Z" fill="#42526E"/>
</svg>
