<svg width="25" height="24" viewBox="0 0 25 24" fill="none" xmlns="http://www.w3.org/2000/svg">
<path d="M13.5 22.75H5.5C3.08 22.75 1.75 21.42 1.75 19V11C1.75 8.58 3.08 7.25 5.5 7.25H10.5C10.91 7.25 11.25 7.59 11.25 8V19C11.25 20.58 11.92 21.25 13.5 21.25C13.91 21.25 14.25 21.59 14.25 22C14.25 22.41 13.91 22.75 13.5 22.75ZM5.5 8.75C3.92 8.75 3.25 9.42 3.25 11V19C3.25 20.58 3.92 21.25 5.5 21.25H10.3C9.93999 20.66 9.75 19.91 9.75 19V8.75H5.5Z" fill="#42526E"/>
<path d="M10.5 8.75H5.5C5.09 8.75 4.75 8.41 4.75 8V6C4.75 4.48 5.98 3.25 7.5 3.25H10.61C10.84 3.25 11.06 3.35998 11.2 3.53998C11.34 3.72998 11.39 3.97 11.33 4.19C11.27 4.41 11.25 4.66 11.25 5V8C11.25 8.41 10.91 8.75 10.5 8.75ZM6.25 7.25H9.75V5C9.75 4.91 9.75 4.83 9.75 4.75H7.5C6.81 4.75 6.25 5.31 6.25 6V7.25Z" fill="#42526E"/>
<path d="M14.5 13.75C14.09 13.75 13.75 13.41 13.75 13V8C13.75 7.59 14.09 7.25 14.5 7.25C14.91 7.25 15.25 7.59 15.25 8V13C15.25 13.41 14.91 13.75 14.5 13.75Z" fill="#42526E"/>
<path d="M18.5 13.75C18.09 13.75 17.75 13.41 17.75 13V8C17.75 7.59 18.09 7.25 18.5 7.25C18.91 7.25 19.25 7.59 19.25 8V13C19.25 13.41 18.91 13.75 18.5 13.75Z" fill="#42526E"/>
<path d="M18.5 22.75H14.5C14.09 22.75 13.75 22.41 13.75 22V18C13.75 17.04 14.54 16.25 15.5 16.25H17.5C18.46 16.25 19.25 17.04 19.25 18V22C19.25 22.41 18.91 22.75 18.5 22.75ZM15.25 21.25H17.75V18C17.75 17.86 17.64 17.75 17.5 17.75H15.5C15.36 17.75 15.25 17.86 15.25 18V21.25Z" fill="#42526E"/>
<path d="M6.5 17.75C6.09 17.75 5.75 17.41 5.75 17V13C5.75 12.59 6.09 12.25 6.5 12.25C6.91 12.25 7.25 12.59 7.25 13V17C7.25 17.41 6.91 17.75 6.5 17.75Z" fill="#42526E"/>
<path d="M19.5 22.75H13.5C11.08 22.75 9.75 21.42 9.75 19V5C9.75 2.58 11.08 1.25 13.5 1.25H19.5C21.92 1.25 23.25 2.58 23.25 5V19C23.25 21.42 21.92 22.75 19.5 22.75ZM13.5 2.75C11.92 2.75 11.25 3.42 11.25 5V19C11.25 20.58 11.92 21.25 13.5 21.25H19.5C21.08 21.25 21.75 20.58 21.75 19V5C21.75 3.42 21.08 2.75 19.5 2.75H13.5Z" fill="#42526E"/>
</svg>
