<svg width="25" height="24" viewBox="0 0 25 24" fill="none" xmlns="http://www.w3.org/2000/svg">
<path d="M6.06971 22.7001C3.72971 22.7001 1.74971 20.72 1.74971 18.38V12.22C1.69971 9.30005 2.77971 6.55005 4.79971 4.49005C6.81971 2.44005 9.52971 1.30005 12.4497 1.30005C18.4097 1.30005 23.2497 6.15005 23.2497 12.1V18.26C23.2497 20.64 21.3097 22.58 18.9297 22.58C16.5897 22.58 14.6097 20.6 14.6097 18.26V15.45C14.6097 14 15.7497 12.86 17.1997 12.86C18.6497 12.86 19.7897 14 19.7897 15.45V18.48C19.7897 18.89 19.4497 19.23 19.0397 19.23C18.6297 19.23 18.2897 18.89 18.2897 18.48V15.45C18.2897 14.77 17.7397 14.36 17.1997 14.36C16.5197 14.36 16.1097 14.91 16.1097 15.45V18.26C16.1097 19.7901 17.3997 21.08 18.9297 21.08C20.4597 21.08 21.7497 19.7901 21.7497 18.26V12.1C21.7497 6.97005 17.5797 2.80005 12.4497 2.80005C9.93971 2.80005 7.60971 3.77005 5.86971 5.54005C4.12971 7.31005 3.19971 9.68005 3.24971 12.2V18.38C3.24971 19.91 4.53971 21.2001 6.06971 21.2001C7.59971 21.2001 8.88971 19.91 8.88971 18.38V15.57C8.88971 14.89 8.33971 14.48 7.79971 14.48C7.11971 14.48 6.70971 15.03 6.70971 15.57V18.49C6.70971 18.9 6.36971 19.24 5.95971 19.24C5.54971 19.24 5.20971 18.9 5.20971 18.49V15.57C5.20971 14.12 6.34971 12.98 7.79971 12.98C9.24971 12.98 10.3897 14.12 10.3897 15.57V18.38C10.3897 20.72 8.40971 22.7001 6.06971 22.7001Z" fill="#42526E"/>
</svg>
